<svg width="48" height="48" viewBox="0 0 48 48" fill="none" xmlns="http://www.w3.org/2000/svg">
<circle cx="24" cy="24" r="24" fill="#000D1D" fill-opacity="0.04"/>
<rect x="0.23716" y="0.182506" width="25.1607" height="18.6648" rx="2.4359" transform="matrix(0.978148 -0.207912 0.0495471 0.998772 9.81596 16.0158)" fill="black" stroke="black" stroke-width="0.461538"/>
<rect x="0.23716" y="0.182506" width="25.1607" height="18.6648" rx="2.4359" transform="matrix(0.978148 -0.207912 0.0495471 0.998772 8.86821 15.466)" fill="white" stroke="black" stroke-width="0.461538"/>
<path d="M13.8626 23.952L17.5765 23.1694" stroke="#EBE9E9" stroke-width="1.84615" stroke-linecap="round"/>
<path d="M14.0839 27.9083L17.7258 27.1822" stroke="#EBE9E9" stroke-width="1.84615" stroke-linecap="round"/>
<path d="M13.5147 19.9391L30.2864 16.0613" stroke="#EBE9E9" stroke-width="1.84615" stroke-linecap="round"/>
<path d="M21.866 20.5819L36.928 17.3804C37.5513 17.2479 38.0827 17.6568 38.1143 18.2933L38.8338 32.7989C38.8653 33.4353 38.3852 34.0583 37.7619 34.1908L22.7 37.3923C22.0767 37.5248 21.5455 37.1167 21.5138 36.4804L20.7942 21.9748C20.7626 21.3383 21.2427 20.7144 21.866 20.5819Z" fill="white" stroke="black" stroke-width="0.461538"/>
<path d="M23.1431 23.6253C23.1179 23.1161 23.5017 22.6174 24.0003 22.5115L34.9224 20.1899C35.4211 20.0839 35.8458 20.4107 35.8711 20.9199L36.3857 31.2944C36.411 31.8036 36.0272 32.3023 35.5286 32.4082L24.6064 34.7298C24.1078 34.8358 23.6831 34.509 23.6578 33.9998L23.1431 23.6253Z" fill="#66DD8C"/>
<path d="M33.4301 25.1955L32.8929 25.3097L32.4827 24.2674C32.2721 23.7369 31.7355 23.4536 31.1476 23.5785L28.046 24.2377C27.4581 24.3627 26.9601 24.8555 26.8064 25.4739L26.5071 26.6671L25.9698 26.7812C25.7367 26.8308 25.5539 27.0684 25.5657 27.3064L25.578 27.5548C25.5898 27.7929 25.7922 27.9486 26.0253 27.8991L26.1773 27.8667C26.1158 28.2773 26.0856 28.702 26.1062 29.1161L26.2104 31.2171C26.2222 31.4551 26.4246 31.6109 26.6577 31.5613L27.3672 31.4105C27.6003 31.3609 27.7832 31.1233 27.7714 30.8853L27.738 30.2126L32.0256 29.3012L32.059 29.9739C32.0708 30.212 32.2731 30.3677 32.5062 30.3182L33.2158 30.1673C33.4489 30.1178 33.6317 29.8802 33.6199 29.6422L33.5158 27.5411C33.4952 27.1272 33.4245 26.7343 33.3234 26.3479L33.4754 26.3156C33.7085 26.266 33.8914 26.0284 33.8795 25.7904L33.8672 25.542C33.8657 25.3017 33.6633 25.146 33.4301 25.1955L33.4301 25.1955ZM27.2894 26.9506L27.6301 25.5603C27.6908 25.3383 27.8762 25.1524 28.089 25.1072L31.1907 24.4479C31.4036 24.4026 31.6033 24.5066 31.6846 24.6985L32.1547 25.9164C32.1781 25.9742 32.1405 26.0449 32.0797 26.0578L27.3766 27.0575C27.3157 27.0704 27.2722 27.017 27.2894 26.9506L27.2894 26.9506ZM28.2973 28.8909L27.4357 29.074C27.2938 29.1042 27.166 29.0059 27.1588 28.861L27.1383 28.447C27.13 28.2814 27.2658 28.127 27.429 28.1133L28.2364 28.0777C28.3489 28.0747 28.4341 28.1402 28.4596 28.2394L28.5342 28.5059C28.5734 28.6753 28.4594 28.8564 28.2973 28.8909L28.2973 28.8909ZM32.4702 27.732C32.4774 27.8769 32.3619 28.0269 32.22 28.0571L31.3584 28.2402C31.1962 28.2747 31.0568 28.1475 31.0891 27.9733L31.136 27.6809C31.1512 27.573 31.2383 27.4709 31.3386 27.4286L32.1327 27.1239C32.2933 27.0584 32.4419 27.1628 32.4501 27.3283L32.4702 27.732Z" fill="black"/>
</svg>
