<svg width="40" height="40" viewBox="0 0 40 40" fill="none" xmlns="http://www.w3.org/2000/svg">
<rect width="40" height="40" rx="20" fill="#000D1D" fill-opacity="0.02"/>
<path fill-rule="evenodd" clip-rule="evenodd" d="M10.7498 14.65C12.6456 11.4272 16.1055 9.44839 19.8446 9.44839H20.1558C23.8949 9.44839 27.3549 11.4273 29.2506 14.6502C31.193 17.9523 31.193 22.0477 29.2506 25.3498C27.3549 28.5727 23.8949 30.5516 20.1558 30.5516H19.8446C16.1055 30.5516 12.6456 28.5728 10.7498 25.35C8.80735 22.0478 8.80735 17.9522 10.7498 14.65ZM19.8446 11.4484C16.8142 11.4484 14.0102 13.0521 12.4737 15.6641C10.8994 18.3404 10.8994 21.6596 12.4737 24.3359C14.0102 26.9479 16.8142 28.5516 19.8446 28.5516H20.1558C23.1862 28.5516 25.9903 26.9478 27.5268 24.3357C29.1009 21.6596 29.1009 18.3404 27.5268 15.6643C25.9903 13.0522 23.1862 11.4484 20.1558 11.4484H19.8446Z" fill="#1D1D1D"/>
<path d="M22.9052 20.4307C24.264 20.4307 26.3513 19.3279 26.3513 17.9692H28.453V16H26.2824H11V17.9692H12.567C12.567 19.3279 14.6543 20.4307 16.0131 20.4307C17.3718 20.4307 18.7207 19.3279 18.7207 17.9692H20.1976C20.1976 19.3279 21.5465 20.4307 22.9052 20.4307Z" fill="#1D1D1D"/>
<path d="M22.9052 20.4307C24.264 20.4307 26.3513 19.3279 26.3513 17.9692H28.453V16H26.2824H11V17.9692H12.567C12.567 19.3279 14.6543 20.4307 16.0131 20.4307C17.3718 20.4307 18.7207 19.3279 18.7207 17.9692H20.1976C20.1976 19.3279 21.5465 20.4307 22.9052 20.4307Z" fill="#01BC8D"/>
<path fill-rule="evenodd" clip-rule="evenodd" d="M10.7498 14.65C12.6456 11.4272 16.1055 9.44839 19.8446 9.44839H20.1558C23.8949 9.44839 27.3549 11.4273 29.2506 14.6502C31.193 17.9523 31.193 22.0477 29.2506 25.3498C27.3549 28.5727 23.8949 30.5516 20.1558 30.5516H19.8446C16.1055 30.5516 12.6456 28.5728 10.7498 25.35C8.80735 22.0478 8.80735 17.9522 10.7498 14.65ZM19.8446 11.4484C16.8142 11.4484 14.0102 13.0521 12.4737 15.6641C10.8994 18.3404 10.8994 21.6596 12.4737 24.3359C14.0102 26.9479 16.8142 28.5516 19.8446 28.5516H20.1558C23.1862 28.5516 25.9903 26.9478 27.5268 24.3357C29.1009 21.6596 29.1009 18.3404 27.5268 15.6643C25.9903 13.0522 23.1862 11.4484 20.1558 11.4484H19.8446Z" fill="#8C8C8C"/>
</svg>
