<svg width="40" height="28" viewBox="0 0 40 28" fill="none" xmlns="http://www.w3.org/2000/svg">
<rect x="0.154141" y="0.154141" width="39.6917" height="27.6917" rx="2.31211" fill="white" stroke="#1D1D1D" stroke-width="0.308281"/>
<mask id="mask0_0_1022" style="mask-type:alpha" maskUnits="userSpaceOnUse" x="0" y="0" width="40" height="28">
<rect y="0.000396729" width="40" height="27.6667" rx="2.46625" fill="white"/>
</mask>
<g mask="url(#mask0_0_1022)">
<path d="M6 6.26633C6 3.54218 8.20836 1.33383 10.9325 1.33383H29.0675C31.7916 1.33383 34 3.54219 34 6.26633V27.068C34 29.7921 31.7916 32.0005 29.0675 32.0005H10.9325C8.20836 32.0005 6 29.7921 6 27.068V6.26633Z" fill="#EBE9E9"/>
<path d="M7.33331 6.36664C7.33331 4.32353 8.98958 2.66727 11.0327 2.66727H28.9673C31.0104 2.66727 32.6666 4.32353 32.6666 6.36664V29.6346C32.6666 31.6777 31.0104 33.3339 28.9673 33.3339H11.0327C8.98958 33.3339 7.33331 31.6777 7.33331 29.6346V6.36664Z" fill="white"/>
<path d="M10.625 8.09948C10.625 7.07792 11.4531 6.24979 12.4747 6.24979H26.9003C27.9219 6.24979 28.75 7.07792 28.75 8.09947V20.6501C28.75 21.6717 27.9219 22.4998 26.9003 22.4998H12.4747C11.4531 22.4998 10.625 21.6717 10.625 20.6501V8.09948Z" fill="#EBE9E9"/>
<path d="M13.6559 6.24979H11.8581C11.1771 6.24979 10.625 6.80187 10.625 7.48291V9.8609M25.7191 6.24979H27.5169C28.1979 6.24979 28.75 6.80188 28.75 7.48291V9.8609M10.625 18.8887V21.2667C10.625 21.9477 11.1771 22.4998 11.8581 22.4998H13.6559M28.75 18.8887V21.2667C28.75 21.9477 28.1979 22.4998 27.5169 22.4998H25.7191" stroke="#66DD8C" stroke-width="0.924844" stroke-linecap="round"/>
<circle cx="19.7918" cy="14.2506" r="6.72237" fill="#1D1D1D"/>
<path d="M10.625 14.1646C10.625 13.7691 10.9456 13.4485 11.3412 13.4485H28.2426C28.6381 13.4485 28.9587 13.7691 28.9587 14.1646C28.9587 14.5601 28.6381 14.8808 28.2426 14.8808H11.3412C10.9456 14.8808 10.625 14.5601 10.625 14.1646Z" fill="#66DD8C"/>
<path d="M21.9444 12.6059C21.9516 13.4866 21.4345 14.244 20.6865 14.5853C22.1108 14.915 23.2483 16.0091 23.6388 17.4143C23.7363 17.7648 23.4504 18.0796 23.0873 18.0796H16.5593C16.196 18.0796 15.9049 17.7646 15.9969 17.4139C16.3652 16.0095 17.4845 14.9151 18.9023 14.5862C18.1487 14.245 17.6192 13.4875 17.6119 12.6068C17.6021 11.4057 18.5639 10.4321 19.7603 10.4321C20.9567 10.4321 21.9346 11.4057 21.9444 12.6059Z" fill="#66DD8C"/>
<path d="M21.9444 12.6059C21.9516 13.4866 21.4345 14.244 20.6865 14.5853C22.1108 14.915 23.2483 16.0091 23.6388 17.4143C23.7363 17.7648 23.4504 18.0796 23.0873 18.0796H16.5593C16.196 18.0796 15.9049 17.7646 15.9969 17.4139C16.3652 16.0095 17.4845 14.9151 18.9023 14.5862C18.1487 14.245 17.6192 13.4875 17.6119 12.6068C17.6021 11.4057 18.5639 10.4321 19.7603 10.4321C20.9567 10.4321 21.9346 11.4057 21.9444 12.6059Z" fill="#66DD8C"/>
<path d="M21.9444 12.6059C21.9516 13.4866 21.4345 14.244 20.6865 14.5853C22.1108 14.915 23.2483 16.0091 23.6388 17.4143C23.7363 17.7648 23.4504 18.0796 23.0873 18.0796H16.5593C16.196 18.0796 15.9049 17.7646 15.9969 17.4139C16.3652 16.0095 17.4845 14.9151 18.9023 14.5862C18.1487 14.245 17.6192 13.4875 17.6119 12.6068C17.6021 11.4057 18.5639 10.4321 19.7603 10.4321C20.9567 10.4321 21.9346 11.4057 21.9444 12.6059Z" fill="#66DD8C"/>
<mask id="mask1_0_1022" style="mask-type:alpha" maskUnits="userSpaceOnUse" x="13" y="7" width="14" height="14">
<circle cx="19.7918" cy="14.2511" r="6.72237" fill="#66DD8C"/>
</mask>
<g mask="url(#mask1_0_1022)">
<path d="M10.625 14.1646C10.625 13.7691 10.9456 13.4485 11.3412 13.4485H28.2426C28.6381 13.4485 28.9587 13.7691 28.9587 14.1646C28.9587 14.5601 28.6381 14.8808 28.2426 14.8808H11.3412C10.9456 14.8808 10.625 14.5601 10.625 14.1646Z" fill="#EBE9E9"/>
</g>
</g>
</svg>
