<svg width="40" height="40" viewBox="0 0 40 40" fill="none" xmlns="http://www.w3.org/2000/svg">
<rect width="40" height="40" rx="20" fill="#000D1D" fill-opacity="0.02"/>
<path fill-rule="evenodd" clip-rule="evenodd" d="M17.5002 11.5C17.5002 10.3954 18.3957 9.5 19.5002 9.5H27.5002C28.6048 9.5 29.5002 10.3954 29.5002 11.5V25.5C29.5002 26.6046 28.6048 27.5 27.5002 27.5H21.5002V30.1C21.5002 30.3209 21.3212 30.5 21.1002 30.5H10.9002C10.6793 30.5 10.5002 30.3209 10.5002 30.1V25.9C10.5002 25.6791 10.6793 25.5 10.9002 25.5H12.4518C11.9926 23.5216 11.5574 20.4221 11.5056 18.8082C11.4933 18.424 11.598 18.0462 11.8062 17.7231C12.6678 16.3865 14.0732 14.8809 15.2178 13.7437C15.7983 13.1668 16.3274 12.6695 16.7115 12.3162C16.9037 12.1394 17.0601 11.9983 17.1689 11.9009C17.2234 11.8522 17.266 11.8144 17.2952 11.7885L17.329 11.7586L17.3414 11.7478L17.5002 11.9291V11.9287C17.3416 11.7476 17.3415 11.7477 17.3414 11.7478C17.3915 11.704 17.4447 11.666 17.5002 11.6339V11.5ZM17.5002 14.316C17.2349 14.5673 16.9387 14.8532 16.6274 15.1624C15.504 16.2787 14.2444 17.6421 13.5057 18.7781C13.561 20.3397 14.0176 23.5292 14.4705 25.3406C14.4838 25.3938 14.4925 25.4471 14.497 25.5H18.315C18.3311 25.4647 18.3495 25.4242 18.3699 25.379C18.4551 25.1898 18.5753 24.9173 18.714 24.5874C18.9924 23.9249 19.3402 23.0425 19.6276 22.1437C19.9201 21.2291 20.1281 20.3639 20.1651 19.7151C20.1834 19.395 20.155 19.1994 20.1225 19.0996C19.9584 19.0475 19.8359 19.0695 19.7093 19.129C19.5277 19.2145 19.3184 19.3944 19.1036 19.6684C18.8953 19.9342 18.7256 20.2322 18.6056 20.4737C18.5468 20.5921 18.5025 20.6914 18.4739 20.759C18.4596 20.7927 18.4493 20.8182 18.4431 20.8337L18.4371 20.8492C18.2443 21.3665 17.6688 21.6297 17.1513 21.4372C16.6337 21.2447 16.3702 20.6689 16.5628 20.1513C16.5627 20.1516 16.5628 20.1513 17.5 20.5L16.5628 20.1513L16.5633 20.15L16.5639 20.1484L16.5654 20.1444L16.5697 20.1329L16.5837 20.0971C16.5954 20.0677 16.6117 20.0274 16.6327 19.978C16.6745 19.8793 16.7353 19.7431 16.8146 19.5836C16.9659 19.2791 17.1947 18.8692 17.5002 18.4723V14.316ZM20.5578 25.3623L20.4996 25.5H21.1002H27.5002V11.5H19.5002V17.1113C19.9552 17.0275 20.4495 17.0666 20.9592 17.2781C21.5299 17.5149 21.8535 17.9793 22.0132 18.4472C22.1644 18.8903 22.1876 19.3785 22.1619 19.8289C22.1102 20.7351 21.8393 21.7936 21.5326 22.7528C21.2208 23.7278 20.849 24.6693 20.5578 25.3623ZM20.9202 13.9172C20.9202 13.3649 21.3679 12.9172 21.9202 12.9172H24.9202C25.4725 12.9172 25.9202 13.3649 25.9202 13.9172C25.9202 14.4695 25.4725 14.9172 24.9202 14.9172H21.9202C21.3679 14.9172 20.9202 14.4695 20.9202 13.9172ZM12.5002 28.5V27.5H19.5002V28.5H12.5002Z" fill="#8C8C8C"/>
<path fill-rule="evenodd" clip-rule="evenodd" d="M20.8999 13.9C20.8999 13.3477 21.3476 12.9 21.8999 12.9H24.8999C25.4522 12.9 25.8999 13.3477 25.8999 13.9C25.8999 14.4523 25.4522 14.9 24.8999 14.9H21.8999C21.3476 14.9 20.8999 14.4523 20.8999 13.9Z" fill="#01BC8D"/>
</svg>
