<svg width="40" height="28" viewBox="0 0 40 28" fill="none" xmlns="http://www.w3.org/2000/svg">
<rect x="0.154141" y="0.154141" width="39.6917" height="27.6917" rx="2.31211" fill="white" stroke="#1D1D1D" stroke-width="0.308281"/>
<rect x="2.99997" y="9.00041" width="13.6034" height="15.9579" rx="1.84969" fill="#66DD8C"/>
<path d="M12.3976 14.9901C12.4063 16.0521 11.7828 16.9655 10.8807 17.377C12.6436 17.7851 14.042 19.1642 14.4762 20.9233C14.5634 21.2765 14.2781 21.5906 13.915 21.5906H5.76458C5.4013 21.5906 5.11086 21.2762 5.1925 20.9229C5.59879 19.1648 6.97441 17.7851 8.72931 17.3782C7.82054 16.9666 7.18202 16.0533 7.17331 14.9913C7.16143 13.5429 8.32126 12.3689 9.76394 12.3689C11.2066 12.3689 12.3857 13.5429 12.3976 14.9901Z" fill="#1D1D1D"/>
<path d="M8.85944 15.8376C8.95095 16.0477 9.26877 16.4679 9.80789 16.4679C10.347 16.4679 10.6565 16.0477 10.7439 15.8376" stroke="#66DD8C" stroke-width="0.616563" stroke-linecap="round"/>
<rect opacity="0.8" x="18.9998" y="19.9994" width="5" height="5" rx="0.616563" fill="#66DD8C" fill-opacity="0.12"/>
<rect x="24.9998" y="22.289" width="4.5" height="1" rx="0.5" fill="#EBE9E9"/>
<rect x="24.9998" y="23.9996" width="3" height="1" rx="0.5" fill="#EBE9E9"/>
<rect x="18.9998" y="9.49998" width="7.5" height="1.5" rx="0.616563" fill="#EBE9E9"/>
<rect x="27.9998" y="9.49998" width="9" height="1.5" rx="0.616563" fill="#EBE9E9"/>
<rect x="18.9998" y="13.0004" width="4" height="1.5" rx="0.616563" fill="#EBE9E9"/>
<rect x="24.4998" y="13.0004" width="12.5" height="1.5" rx="0.616563" fill="#EBE9E9"/>
<rect x="18.9998" y="16.4998" width="18" height="1.5" rx="0.616563" fill="#EBE9E9"/>
<rect x="2.99997" y="2.49956" width="34" height="4.5" rx="1.23313" fill="#EBE9E9"/>
</svg>
