<svg width="48" height="48" viewBox="0 0 48 48" fill="none" xmlns="http://www.w3.org/2000/svg">
<ellipse cx="24" cy="24" rx="24" ry="24" fill="#000D1D" fill-opacity="0.04"/>
<rect x="0.23716" y="0.182506" width="25.1607" height="18.6648" rx="2.4359" transform="matrix(0.978148 -0.207912 0.0495471 0.998772 11.465 17.4368)" fill="#1D1D1D" stroke="#1D1D1D" stroke-width="0.461538"/>
<rect x="0.23716" y="0.182506" width="25.1607" height="18.6648" rx="2.4359" transform="matrix(0.978148 -0.207912 0.0495471 0.998772 10.5173 16.887)" fill="white" stroke="#1D1D1D" stroke-width="0.461538"/>
<path d="M13.1223 20.3323C13.0844 19.5685 13.66 18.8205 14.408 18.6615L23.3964 16.7509C24.1444 16.5919 24.7815 17.0822 24.8194 17.846L25.3632 28.8075C25.4011 29.5713 24.8254 30.3193 24.0774 30.4783L15.089 32.3888C14.341 32.5478 13.7039 32.0576 13.666 31.2938L13.1223 20.3323Z" fill="#66DD8C"/>
<path d="M21.1454 22.5821C21.1804 23.4267 20.7178 24.2511 20.0246 24.719C21.2579 24.7646 22.2868 25.4667 22.7707 26.5595C22.9793 27.0307 22.5728 27.5908 22.0396 27.6968L16.608 28.7773C16.0745 28.8834 15.6287 28.4925 15.7956 27.9465C16.1825 26.6811 17.1365 25.5846 18.3451 25.054C17.6247 24.8673 17.102 24.2389 17.0671 23.3943C17.0194 22.2424 17.8937 21.1271 19.02 20.9031C20.1462 20.6791 21.0978 21.4312 21.1454 22.5821Z" fill="#1D1D1D"/>
<path d="M27.6647 22.7571L30.8769 22.0324" stroke="#EBE9E9" stroke-width="1.84615" stroke-linecap="round"/>
<path d="M27.8859 26.481L31.0981 25.7563" stroke="#EBE9E9" stroke-width="1.84615" stroke-linecap="round"/>
<path d="M27.3168 19.0331L32.1835 17.9866" stroke="#EBE9E9" stroke-width="1.84615" stroke-linecap="round"/>
</svg>
