<svg width="327" height="200" viewBox="0 0 327 200" fill="none" xmlns="http://www.w3.org/2000/svg">
<g clip-path="url(#clip0_324_636)">
<rect width="327" height="200" rx="8" fill="#000D1D" fill-opacity="0.02"/>
<path d="M245.254 -4.47467V137.612C245.254 141.956 241.732 145.477 237.389 145.477H86.3887C82.0454 145.476 78.5245 141.956 78.5244 137.612V-4.47467H245.254Z" fill="white" stroke="#1D1D1D" stroke-width="1.04861"/>
<rect x="90.5834" y="68.4033" width="57.0589" height="66.9344" rx="6.29167" fill="#66DD8C"/>
<path d="M119.247 84.4501C109.622 84.4501 101.771 92.2454 101.692 101.87C101.613 111.494 109.336 119.29 118.961 119.29C128.586 119.29 136.454 111.494 136.533 101.87C136.612 92.2454 128.872 84.4501 119.247 84.4501ZM131.225 94.902H126.086C125.538 92.7245 124.762 90.6341 123.733 88.7005C126.929 89.7979 129.576 92.019 131.225 94.902ZM119.227 87.995C120.664 90.0854 121.777 92.4109 122.497 94.9019H115.843C116.603 92.4109 117.755 90.0854 119.227 87.995ZM105.601 105.354C105.323 104.239 105.167 103.072 105.176 101.87C105.186 100.668 105.361 99.5008 105.658 98.3859H111.537C111.389 99.5269 111.283 100.685 111.274 101.87C111.264 103.054 111.35 104.213 111.489 105.354H105.601ZM106.992 108.838H112.131C112.679 111.015 113.455 113.106 114.484 115.048C111.288 113.95 108.641 111.721 106.992 108.838ZM112.245 94.902H107.106C108.802 92.019 111.486 89.7893 114.7 88.6918C113.639 90.6341 112.829 92.7245 112.245 94.902ZM118.999 115.745C117.57 113.654 116.457 111.329 115.728 108.838H122.383C121.613 111.329 120.462 113.654 118.999 115.745ZM123.161 105.354H115.008C114.852 104.213 114.748 103.054 114.758 101.87C114.767 100.685 114.89 99.5269 115.065 98.3859H123.218C123.374 99.5269 123.478 100.685 123.468 101.87C123.458 103.054 123.335 104.213 123.161 105.354ZM123.525 115.039C124.586 113.097 125.396 111.015 125.98 108.838H131.119C129.415 111.721 126.731 113.942 123.525 115.039ZM126.679 105.354C126.828 104.213 126.942 103.054 126.952 101.87C126.962 100.685 126.875 99.5269 126.737 98.3859H132.616C132.894 99.5008 133.059 100.668 133.049 101.87C133.039 103.072 132.864 104.239 132.559 105.354H126.679Z" fill="#1D1D1D"/>
<rect opacity="0.8" x="157.694" y="114.545" width="20.9722" height="20.9722" rx="2.09722" fill="#86D993" fill-opacity="0.12"/>
<rect x="182.861" y="124.149" width="18.875" height="4.19444" rx="2.09722" fill="#EBE9E9"/>
<rect x="182.861" y="131.322" width="12.5833" height="4.19444" rx="2.09722" fill="#EBE9E9"/>
<rect x="157.694" y="70.5017" width="31.4583" height="6.29167" rx="2.09722" fill="#EBE9E9"/>
<rect x="195.445" y="70.5016" width="37.75" height="6.29167" rx="2.09722" fill="#EBE9E9"/>
<rect x="157.694" y="85.1832" width="16.7778" height="6.29167" rx="2.09722" fill="#EBE9E9"/>
<rect x="180.764" y="85.1832" width="52.4306" height="6.29167" rx="2.09722" fill="#EBE9E9"/>
<rect x="157.694" y="99.8629" width="75.5" height="6.29167" rx="2.09722" fill="#EBE9E9"/>
<rect x="90.5834" y="39.0429" width="142.611" height="18.875" rx="4.19444" fill="#EBE9E9"/>
<path d="M245.254 -4.47467V137.612C245.254 141.956 241.732 145.477 237.389 145.477H86.3887C82.0454 145.476 78.5245 141.956 78.5244 137.612V-4.47467H245.254Z" stroke="#1D1D1D" stroke-width="1.04861"/>
</g>
<mask id="mask0_324_636" style="mask-type:alpha" maskUnits="userSpaceOnUse" x="26" y="0" width="276" height="159">
<rect x="26.0001" width="275" height="159" fill="#D9D9D9"/>
</mask>
<g mask="url(#mask0_324_636)">
<mask id="mask1_324_636" style="mask-type:alpha" maskUnits="userSpaceOnUse" x="78" y="-6" width="168" height="152">
<path d="M245.254 -4.47598V137.611C245.254 141.954 241.732 145.475 237.389 145.475H86.3888C82.0455 145.475 78.5247 141.954 78.5245 137.611V-4.47598H245.254Z" fill="white" stroke="black" stroke-width="1.04861"/>
</mask>
<g mask="url(#mask1_324_636)">
<rect x="78.6906" y="-2.80508" width="166.363" height="32.3533" fill="#F5F5F6"/>
<path d="M76.9515 29.6031L246.827 29.6031" stroke="#B8A9A9" stroke-width="1.04861" stroke-linecap="round"/>
<rect x="103.167" y="-5.00079" width="10.4861" height="20.9722" rx="2.09722" fill="#EBE9E9"/>
<rect x="130.431" y="-5.00079" width="6.29167" height="20.9722" rx="2.09722" fill="#EBE9E9"/>
<rect x="143.014" y="-5.00079" width="6.29167" height="20.9722" rx="2.09722" fill="#EBE9E9"/>
<rect x="166.083" y="-5.00079" width="6.29167" height="20.9722" rx="2.09722" fill="#EBE9E9"/>
<rect x="178.667" y="-5.00079" width="6.29167" height="20.9722" rx="2.09722" fill="#EBE9E9"/>
<rect x="201.736" y="-5.00079" width="6.29167" height="20.9722" rx="2.09722" fill="#EBE9E9"/>
<rect x="214.32" y="-5.00079" width="6.29167" height="20.9722" rx="2.09722" fill="#EBE9E9"/>
</g>
</g>
<defs>
<clipPath id="clip0_324_636">
<rect width="327" height="200" rx="8" fill="white"/>
</clipPath>
</defs>
</svg>
