<svg width="48" height="48" viewBox="0 0 48 48" fill="none" xmlns="http://www.w3.org/2000/svg">
<ellipse cx="24" cy="24" rx="24" ry="24" fill="#000D1D" fill-opacity="0.04"/>
<mask id="mask0_1_1569" style="mask-type:alpha" maskUnits="userSpaceOnUse" x="14" y="9" width="22" height="32">
<path d="M31.7361 10.9045L31.738 10.9055C31.7613 10.9172 31.7844 10.9296 31.8074 10.9417L31.8093 10.9426L31.8728 10.9749V10.9768C33.1428 11.6718 34.0152 13.0128 34.1003 14.7297L34.9119 31.0774C35.0577 34.0193 32.8321 36.9113 29.9509 37.5237L18.5681 39.9426C17.9997 40.0634 17.4772 39.9703 17.0632 39.7258L16.946 39.9241L17.0632 39.7249L17.0515 39.719L15.0574 38.6897L15.9412 38.5159L16.155 38.4739L16.1257 38.2581C16.1164 38.1897 16.1098 38.1197 16.1062 38.0481L15.0105 15.9641C14.9431 14.6063 15.9747 13.2653 17.3044 12.9827L28.6873 10.5637C28.8671 10.5255 29.0449 10.4967 29.2205 10.4778L29.4597 10.4524L29.4246 10.2141L29.3445 9.67896L31.7361 10.9045Z" fill="black" stroke="black" stroke-width="0.461538"/>
</mask>
<g mask="url(#mask0_1_1569)">
<path d="M31.7361 10.9045L31.738 10.9055C31.7613 10.9172 31.7844 10.9296 31.8074 10.9417L31.8093 10.9426L31.8728 10.9749V10.9768C33.1428 11.6718 34.0152 13.0128 34.1003 14.7297L34.9119 31.0774C35.0577 34.0193 32.8321 36.9113 29.9509 37.5237L18.5681 39.9426C17.9997 40.0634 17.4772 39.9703 17.0632 39.7258L16.946 39.9241L17.0632 39.7249L17.0515 39.719L15.0574 38.6897L15.9412 38.5159L16.155 38.4739L16.1257 38.2581C16.1164 38.1897 16.1098 38.1197 16.1062 38.0481L15.0105 15.9641C14.9431 14.6063 15.9747 13.2653 17.3044 12.9827L28.6873 10.5637C28.8671 10.5255 29.0449 10.4967 29.2205 10.4778L29.4597 10.4524L29.4246 10.2141L29.3445 9.67896L31.7361 10.9045Z" fill="#1D1D1D" stroke="#1D1D1D" stroke-width="0.461538"/>
<path d="M18.6016 39.3107L28.7906 37.0539C30.1413 36.6881 31.0464 36.5398 31.7219 35.4836" stroke="#B8A9A9" stroke-width="0.461538" stroke-linecap="round"/>
<path d="M31.7361 10.9045L31.738 10.9055C31.7613 10.9172 31.7844 10.9296 31.8074 10.9417L31.8093 10.9426L31.8728 10.9749V10.9768C33.1428 11.6718 34.0152 13.0128 34.1003 14.7297L34.9119 31.0774C35.0577 34.0193 32.8321 36.9113 29.9509 37.5237L18.5681 39.9426C17.9997 40.0634 17.4772 39.9703 17.0632 39.7258L16.946 39.9241L17.0632 39.7249L17.0515 39.719L15.0574 38.6897L15.9412 38.5159L16.155 38.4739L16.1257 38.2581C16.1164 38.1897 16.1098 38.1197 16.1062 38.0481L15.0105 15.9641C14.9431 14.6063 15.9747 13.2653 17.3044 12.9827L28.6873 10.5637C28.8671 10.5255 29.0449 10.4967 29.2205 10.4778L29.4597 10.4524L29.4246 10.2141L29.3445 9.67896L31.7361 10.9045Z" stroke="#1D1D1D" stroke-width="0.461538"/>
</g>
<path d="M34.3157 16.1457C35.1237 16.498 35.4999 17.4334 35.1614 18.2473L33.3704 22.548L32.9769 15.5627L34.3157 16.1457Z" fill="#66DD8C" stroke="#1D1D1D" stroke-width="0.461538" stroke-linecap="round"/>
<path d="M35.0988 28.2179C35.2887 28.9346 34.9668 29.6891 34.3175 30.047L32.6222 30.9806L31.9005 16.1525L35.0988 28.2179Z" fill="#FBD166" stroke="#1D1D1D" stroke-width="0.461538" stroke-linecap="round"/>
<mask id="mask1_1_1569" style="mask-type:alpha" maskUnits="userSpaceOnUse" x="12" y="8" width="21" height="31">
<path d="M14.5451 11.5118L25.9275 9.09238C28.8293 8.47564 31.3011 10.3771 31.4483 13.34L32.2593 29.688C32.4063 32.6511 30.1727 35.5535 27.2708 36.1704L15.8884 38.5898C14.5379 38.8769 13.3876 37.9916 13.3191 36.6127L12.2236 14.5285C12.1552 13.1495 13.1945 11.7989 14.5451 11.5118Z" fill="white" stroke="black" stroke-width="0.333333"/>
</mask>
<g mask="url(#mask1_1_1569)">
<path d="M14.5482 11.5752L25.9307 9.15578C28.7978 8.5464 31.2398 10.4259 31.3853 13.3534L32.1963 29.7014C32.3415 32.6292 30.1349 35.4965 27.2676 36.106L15.8852 38.5254C14.5693 38.8051 13.448 37.943 13.3812 36.5995L12.2857 14.5153C12.219 13.1716 13.2323 11.8549 14.5482 11.5752Z" fill="white" stroke="#1D1D1D" stroke-width="0.461538"/>
<path d="M17.2975 34.2972C17.273 33.9006 17.5424 33.5459 17.931 33.463L26.8697 31.556C27.3493 31.4536 27.8078 31.8018 27.838 32.2913C27.8625 32.6878 27.5931 33.0426 27.2045 33.1255L18.2658 35.0325C17.7862 35.1348 17.3277 34.7867 17.2975 34.2972Z" fill="#EBE9E9"/>
<path d="M14.9069 16.1238C14.869 15.36 15.4446 14.612 16.1926 14.453L24.7481 12.6344C26.7427 12.2105 28.4416 13.5178 28.5427 15.5545L29.0793 26.3718C29.1172 27.1356 28.5415 27.8837 27.7935 28.0426L16.9808 30.341C16.2328 30.5 15.5957 30.0097 15.5578 29.2459L14.9069 16.1238Z" fill="#66DD8C"/>
<path d="M21.5641 16.856C19.0327 17.4288 17.0888 19.9919 17.2174 22.5841C17.346 25.1764 19.4982 26.8125 22.0296 26.2397C24.5611 25.6669 26.5095 23.1029 26.3809 20.5106C26.2524 17.9184 24.0956 16.2832 21.5641 16.856ZM24.8767 18.9532L23.525 19.259C23.347 18.7063 23.1106 18.1904 22.8099 17.7318C23.6676 17.8366 24.3983 18.2762 24.8767 18.9532ZM21.6138 17.8103C22.0243 18.2868 22.3532 18.8457 22.5812 19.4726L20.8309 19.8686C20.9924 19.1537 21.2591 18.4599 21.6138 17.8103ZM18.2994 23.2882C18.2089 23.005 18.1498 22.7005 18.1337 22.3768C18.1177 22.053 18.1456 21.7288 18.2063 21.4115L19.7527 21.0615C19.7312 21.3772 19.7215 21.6949 19.7374 22.0139C19.7532 22.333 19.7939 22.6393 19.848 22.9378L18.2994 23.2882ZM18.7194 24.1421L20.071 23.8362C20.249 24.389 20.4854 24.9049 20.7863 25.3658C19.9286 25.261 19.1977 24.819 18.7194 24.1421ZM19.8848 20.0827L18.5332 20.3886C18.9345 19.5126 19.6057 18.7534 20.4341 18.267C20.1851 18.8524 20.0046 19.4626 19.8848 20.0827ZM21.9845 25.2844C21.5763 24.8075 21.2474 24.2485 21.0171 23.6221L22.7674 23.2261C22.6036 23.9416 22.3369 24.6353 21.9845 25.2844ZM22.9178 22.2431L20.7736 22.7283C20.7148 22.4309 20.6695 22.1256 20.6537 21.8066C20.6379 21.4875 20.6522 21.1688 20.6805 20.8516L22.8247 20.3664C22.8835 20.6639 22.9288 20.9691 22.9446 21.2882C22.9604 21.6072 22.9461 21.926 22.9178 22.2431ZM23.1641 24.8254C23.413 24.24 23.5937 23.6322 23.7135 23.012L25.0652 22.7062C24.6615 23.5827 23.9902 24.3395 23.1641 24.8254ZM23.8434 22.0337C23.8648 21.7181 23.8768 21.3999 23.861 21.0808C23.8451 20.7618 23.8045 20.4555 23.7503 20.157L25.2966 19.8071C25.3871 20.0902 25.4485 20.3942 25.4646 20.718C25.4806 21.0417 25.4527 21.3659 25.3897 21.6838L23.8434 22.0337Z" fill="#1D1D1D"/>
<path d="M14.5451 11.5118L25.9275 9.09238C28.8293 8.47564 31.3011 10.3771 31.4483 13.34L32.2593 29.688C32.4063 32.6511 30.1727 35.5535 27.2708 36.1704L15.8884 38.5898C14.5379 38.8769 13.3876 37.9916 13.3191 36.6127L12.2236 14.5285C12.1552 13.1495 13.1945 11.7989 14.5451 11.5118Z" stroke="#1D1D1D" stroke-width="0.333333"/>
</g>
</svg>
