<svg width="164" height="164" viewBox="0 0 164 164" fill="none" xmlns="http://www.w3.org/2000/svg">
<path d="M82.05 156.64C123.372 156.64 156.87 123.142 156.87 81.82C156.87 40.4981 123.372 7 82.05 7C40.728 7 7.22998 40.4981 7.22998 81.82C7.22998 123.142 40.728 156.64 82.05 156.64Z" fill="#F3F3F3"/>
<mask id="mask0_9_636" style="mask-type:luminance" maskUnits="userSpaceOnUse" x="7" y="7" width="150" height="150">
<path d="M82 157C123.421 157 157 123.421 157 82C157 40.5786 123.421 7 82 7C40.5786 7 7 40.5786 7 82C7 123.421 40.5786 157 82 157Z" fill="white"/>
</mask>
<g mask="url(#mask0_9_636)">
<mask id="mask1_9_636" style="mask-type:alpha" maskUnits="userSpaceOnUse" x="66" y="87" width="34" height="34">
<path d="M67.5937 88.0566C68.7679 92.8502 70.4117 103.421 67.5937 107.357C64.1512 112.166 70.649 119.504 82.6032 119.835V119.847C82.7442 119.847 82.8844 119.846 83.0239 119.844C83.1634 119.846 83.3036 119.847 83.4445 119.847V119.835C95.3988 119.504 101.897 112.166 98.454 107.357C95.6361 103.421 97.2799 92.8502 98.454 88.0566L83.0239 91.0038L67.5937 88.0566Z" fill="#FBEBE4" stroke="black" stroke-width="0.5" stroke-linecap="round"/>
</mask>
<g mask="url(#mask1_9_636)">
<path d="M67.5937 88.0566C68.7679 92.8502 70.4117 103.421 67.5937 107.357C64.1512 112.166 70.649 119.504 82.6032 119.835V119.847C82.7442 119.847 82.8844 119.846 83.0239 119.844C83.1634 119.846 83.3036 119.847 83.4445 119.847V119.835C95.3988 119.504 101.897 112.166 98.454 107.357C95.6361 103.421 97.2799 92.8502 98.454 88.0566L83.0239 91.0038L67.5937 88.0566Z" fill="#FBEBE4" stroke="black" stroke-width="0.5" stroke-linecap="round"/>
<path d="M67.0263 103.457C79.7359 108.685 90.7254 98.3491 94.6314 92.5274L66.4629 88.6966L67.0263 103.457Z" fill="black"/>
<path d="M67.5937 88.0566C68.7679 92.8502 70.4117 103.421 67.5937 107.357C64.1512 112.166 70.649 119.504 82.6032 119.835V119.847C82.7442 119.847 82.8844 119.846 83.0239 119.844C83.1634 119.846 83.3036 119.847 83.4445 119.847V119.835C95.3988 119.504 101.897 112.166 98.454 107.357C95.6361 103.421 97.2799 92.8502 98.454 88.0566L83.0239 91.0038L67.5937 88.0566Z" stroke="black" stroke-width="0.5" stroke-linecap="round"/>
</g>
<mask id="mask2_9_636" style="mask-type:alpha" maskUnits="userSpaceOnUse" x="18" y="108" width="130" height="60">
<path d="M64.2911 109.26C62.7274 110.949 57.611 114.402 49.655 114.702C39.71 115.077 20.7582 121.645 18.8818 154.294L83.1266 167L147.371 154.294C145.495 121.645 126.543 115.077 116.598 114.702C108.642 114.402 103.526 110.949 101.962 109.26L83.1266 121.35L64.2911 109.26Z" fill="#86D993" stroke="black" stroke-width="0.5"/>
</mask>
<g mask="url(#mask2_9_636)">
<path d="M64.2911 109.26C62.7274 110.949 57.611 114.402 49.655 114.702C39.71 115.077 20.7582 121.645 18.8818 154.294L83.1266 168L147.371 154.294C145.495 121.645 126.543 115.077 116.598 114.702C108.642 114.402 103.526 110.949 101.962 109.26L83.1266 121.35L64.2911 109.26Z" fill="#25D17F" stroke="black" stroke-width="0.5"/>
<path d="M49.4031 109.09C51.32 116.545 55.2597 132.732 66.9748 132.732H94.7877C106.332 132.732 112.816 139.063 112.816 150.76V161.218" stroke="white" stroke-width="6" stroke-linecap="round"/>
<path d="M64.2911 109.26C62.7274 110.949 57.611 114.402 49.655 114.702C39.71 115.077 20.7582 121.645 18.8818 154.294L83.1266 164.5L147.371 154.294C145.495 121.645 126.543 115.077 116.598 114.702C108.642 114.402 103.526 110.949 101.962 109.26L83.1266 121.35L64.2911 109.26Z" stroke="black" stroke-width="0.5"/>
<path d="M41.1326 135.637C42.1524 141.071 42.9824 146.345 43.2754 152.985" stroke="black" stroke-width="0.5" stroke-linecap="round"/>
<path d="M124.815 135.637C123.795 141.071 122.965 146.345 122.672 152.985" stroke="black" stroke-width="0.5" stroke-linecap="round"/>
</g>
<path d="M96.6868 109.409C97.2401 107.444 99.2702 106.278 101.252 106.801C103.255 107.329 104.45 109.38 103.922 111.383C103.882 111.528 103.778 111.88 103.674 112.146L103.673 112.149C103.528 112.54 103.311 113.055 103.001 113.653C102.382 114.849 101.379 116.392 99.8108 117.919C96.5937 121.051 91.3309 123.788 83.0852 123.788C74.8396 123.788 69.5767 121.051 66.3596 117.919C64.7917 116.392 63.7897 114.849 63.1702 113.653C62.8602 113.055 62.6437 112.54 62.4983 112.149L62.4963 112.146L62.3459 111.711C62.3024 111.573 62.2672 111.452 62.2483 111.383C61.7205 109.38 62.9157 107.329 64.9182 106.801C66.8384 106.295 68.8041 107.373 69.428 109.228L69.4836 109.409L69.4866 109.419C69.4925 109.437 69.5051 109.475 69.5256 109.53C69.5761 109.666 69.6726 109.901 69.8293 110.203C70.1435 110.809 70.6911 111.67 71.5911 112.546C73.31 114.219 76.653 116.288 83.0852 116.288C89.5173 116.288 92.8604 114.219 94.5793 112.546C95.4793 111.67 96.0279 110.809 96.342 110.203C96.4204 110.052 96.4835 109.917 96.5334 109.804L96.6448 109.53C96.6653 109.475 96.6779 109.437 96.6838 109.419H96.6848L96.6868 109.409Z" fill="#25D17F" stroke="black" stroke-width="0.5" stroke-linecap="round"/>
<path d="M56.5524 60.0441C57.5081 58.6424 60.1895 59.8318 61.4107 60.6017L63.1629 75.0969C60.6143 77.088 57.9063 70.4774 56.5524 68.4067C55.1984 66.3359 55.3577 61.7962 56.5524 60.0441Z" fill="#FBEBE4" stroke="black" stroke-width="0.5"/>
<path d="M61.6141 63.5885C60.8502 62.7834 59.1367 61.2721 58.3935 61.6686C57.4645 62.1642 56.969 63.7124 57.2168 64.8272" stroke="black" stroke-width="0.5" stroke-linecap="round"/>
<path d="M59.5242 66.6318C59.5242 64.8757 60.4993 64.329 60.927 64.453C61.7412 64.6846 62.1348 70.0204 62.2234 72.0451C60.5354 69.4929 59.5242 67.9631 59.5242 66.6318Z" stroke="black" stroke-width="0.5" stroke-linecap="round"/>
<path d="M109.241 60.1254C108.285 58.7237 105.604 59.9131 104.383 60.6831L102.631 75.1783C105.179 77.1694 107.887 70.5588 109.241 68.488C110.595 66.4172 110.436 61.8776 109.241 60.1254Z" fill="#FBEBE4" stroke="black" stroke-width="0.5"/>
<path d="M104.179 63.67C104.943 62.8648 106.657 61.3536 107.4 61.7501C108.329 62.2457 108.824 63.7939 108.577 64.9087" stroke="black" stroke-width="0.5" stroke-linecap="round"/>
<path d="M106.269 66.7133C106.269 64.9572 105.294 64.4104 104.866 64.5345C104.052 64.7661 103.659 70.1019 103.57 72.1265C105.258 69.5744 106.269 68.0446 106.269 66.7133Z" stroke="black" stroke-width="0.5" stroke-linecap="round"/>
<path d="M82.0042 35.3962C73.1252 35.3461 63.0515 40.6245 61.2969 51.6536C59.4111 63.5074 63.1679 85.3079 68.7908 91.5506C73.6042 96.8946 80.0318 98.3116 84.402 98.3947H84.9419C88.8781 98.3201 94.1489 97.2607 98.6975 90.6221C103.681 83.3483 105.93 62.4993 104.045 50.6456C102.29 39.6165 90.8832 35.3461 82.0042 35.3962Z" fill="#FBEBE4" stroke="black" stroke-width="0.5"/>
<path d="M75.959 84.9583C75.959 84.9583 80.5146 86.3897 83.4467 86.3897C86.3787 86.3897 90.9749 84.9583 90.9749 84.9583" stroke="black" stroke-width="0.5" stroke-linecap="round"/>
<path d="M80.0454 87.7195C80.0454 87.7195 82.1757 88.4171 83.5109 88.4171C84.8461 88.4171 86.8834 87.7195 86.8834 87.7195" stroke="black" stroke-width="0.5" stroke-linecap="round"/>
<path d="M77.7417 58.0749L81.09 63.5268V78.122C81.413 78.574 82.3688 79.4394 83.6087 79.2844" stroke="black" stroke-width="0.5" stroke-linecap="round"/>
<path d="M68.0923 64.634C69.167 64.1124 71.845 63.1684 73.959 63.5646C76.0731 63.9609 77.0053 64.4426 77.2072 64.634" stroke="black" stroke-width="0.5" stroke-linecap="round"/>
<path d="M77.7151 63.6424C76.4048 62.8869 73.1678 61.6025 70.7029 62.5091" stroke="black" stroke-width="0.2" stroke-linecap="round"/>
<path d="M75.6887 65.1299C75.6887 65.996 74.8974 66.6982 73.9213 66.6982C72.9452 66.6982 72.268 66.002 72.1539 65.1299C72.0775 64.5464 72.211 63.8492 72.6037 63.5616C72.9093 63.3378 73.9896 63.6519 74.4167 63.6519C75.3928 63.6519 75.6887 64.2637 75.6887 65.1299Z" fill="black"/>
<path d="M97.8425 64.634C96.7678 64.1124 94.0898 63.1684 91.9758 63.5646C89.8617 63.9609 88.9295 64.4426 88.7277 64.634" stroke="black" stroke-width="0.5" stroke-linecap="round"/>
<path d="M88.2197 63.6424C89.53 62.8869 92.767 61.6025 95.2319 62.5091" stroke="black" stroke-width="0.2" stroke-linecap="round"/>
<path d="M90.2459 65.1299C90.2459 65.996 91.0372 66.6982 92.0133 66.6982C92.9894 66.6982 93.6666 66.002 93.7807 65.1299C93.8571 64.5464 93.7236 63.8492 93.3308 63.5616C93.0253 63.3378 91.945 63.6519 91.5179 63.6519C90.5418 63.6519 90.2459 64.2637 90.2459 65.1299Z" fill="black"/>
<path d="M69.2827 56.3534C67.4865 56.2314 66.1821 59.0994 65.7544 60.5487C66.7167 59.2516 68.0798 59.2522 69.2827 58.8708C70.2449 58.5656 75.9383 59.4556 78.6647 59.9387L78.1836 57.6502C75.9651 57.2688 71.0789 56.4754 69.2827 56.3534Z" fill="black"/>
<path d="M96.6527 56.3534C98.4117 56.2314 99.6891 59.0994 100.108 60.5487C99.1656 59.2516 97.8306 59.2522 96.6527 58.8708C95.7103 58.5656 90.1349 59.4556 87.4649 59.9387L87.9361 57.6502C90.1087 57.2688 94.8937 56.4754 96.6527 56.3534Z" fill="black"/>
<path d="M96.9201 30.6458C89.5993 24.0862 76.999 25.3832 71.3802 30.0231C67.9082 32.8903 66.1651 41.0853 68.891 43.6982C71.6168 46.311 75.7216 37.2784 80.2647 44.8266C84.8078 52.3747 94.7361 51.5366 99.8849 52.4075C104.004 53.1043 104.595 57.6753 104.375 59.8737C104.354 62.423 104.734 65.3625 106.423 56.7259C108.535 45.9302 106.071 38.8453 96.9201 30.6458Z" fill="black" stroke="black" stroke-width="0.5"/>
<path d="M92.7196 49.4019C86.8803 48.6498 83.577 45.2285 82.5632 43.2748C83.5586 45.0443 87.2785 48.0417 94.9315 48.5725C102.585 49.1033 104.387 52.1115 104.332 53.5492C104.111 50.5079 100.019 50.342 92.7196 49.4019Z" fill="white"/>
<path d="M72.3992 32.2439C75.1729 29.8319 79.7745 26.7517 88.2624 28.3031" stroke="white" stroke-width="0.5" stroke-linecap="round"/>
<path d="M62.6342 57.211C63.5012 52.708 68.7295 52.6637 70.2592 50.0519C73.2887 45.1296 72.1113 37.47 71.1439 34.2555C70.4598 30.0027 60.3839 32.922 59.0065 37.3793C57.5156 42.2036 59.0065 42.7042 57.6232 46.5091C55.801 51.5211 58.1907 56.9621 59.0065 58.8621C59.8223 60.7621 61.7671 61.7139 62.6342 57.211Z" fill="black" stroke="black" stroke-width="0.5"/>
<path d="M69.9726 34.3247C68.91 33.602 65.9536 33.1247 63.9369 35.0353" stroke="white" stroke-width="0.5" stroke-linecap="round"/>
<path opacity="0.5" fill-rule="evenodd" clip-rule="evenodd" d="M149.5 150V166.5H150.5V150H167V149H150.5V133H167V132H150.5V116H167V115H150.5V99H167V98H150.5V82H167V81H150.5V65H167V64H150.5V48H167V47H150.5V31H167V30H150.5V14H167V13H150.5V-3.5L149.5 -3.5V13H133.5V-3.5L132.5 -3.5V13H116.5V-3.5L115.5 -3.5V13H99.5V-3.5L98.5 -3.5V13H82.5V-3.5L81.5 -3.5V13H65.5V-3.5L64.5 -3.5V13H48.5V-3.49999H47.5V13H31.5V-3.49999H30.5V13H14.5V-3.49999H13.5V13H-3V14H13.5L13.5 30H-3V31H13.5V47H-3V48H13.5L13.5 64H-3V65H13.5V81H-3V82H13.5V98H-3V99H13.5L13.5 115H-3V116H13.5V132H-3V133H13.5L13.5 149H-3V150H13.5V166.5H14.5V150H30.5V166.5H31.5V150H47.5V166.5H48.5V150H64.5V166.5H65.5V150H81.5V166.5H82.5V150H98.5V166.5H99.5V150H115.5V166.5H116.5V150H132.5V166.5H133.5V150H149.5ZM149.5 149V133H133.5V149H149.5ZM149.5 132V116H133.5V132H149.5ZM149.5 115V99H133.5V115H149.5ZM149.5 98V82H133.5V98H149.5ZM149.5 81V65H133.5V81H149.5ZM149.5 64V48H133.5V64H149.5ZM149.5 47V31H133.5V47H149.5ZM149.5 30V14H133.5V30H149.5ZM132.5 133V149H116.5V133H132.5ZM132.5 116V132H116.5V116H132.5ZM132.5 99V115H116.5V99H132.5ZM132.5 82V98H116.5V82H132.5ZM132.5 65V81H116.5V65H132.5ZM132.5 48V64H116.5V48H132.5ZM132.5 31V47H116.5V31H132.5ZM132.5 14V30H116.5V14H132.5ZM115.5 149V133H99.5V149H115.5ZM115.5 132V116H99.5V132H115.5ZM115.5 115V99H99.5V115H115.5ZM115.5 98V82H99.5V98H115.5ZM115.5 81V65H99.5V81H115.5ZM115.5 64V48H99.5V64H115.5ZM115.5 47V31H99.5V47H115.5ZM115.5 30V14H99.5V30H115.5ZM98.5 133V149H82.5V133H98.5ZM98.5 116V132H82.5V116H98.5ZM98.5 99V115H82.5V99H98.5ZM98.5 82V98H82.5V82H98.5ZM98.5 65V81H82.5V65H98.5ZM98.5 48V64H82.5V48H98.5ZM98.5 31V47H82.5V31H98.5ZM98.5 14V30H82.5V14H98.5ZM81.5 149V133H65.5V149H81.5ZM81.5 132V116H65.5V132H81.5ZM81.5 115V99H65.5V115H81.5ZM81.5 98V82H65.5V98H81.5ZM81.5 81V65H65.5V81H81.5ZM81.5 64V48H65.5V64H81.5ZM81.5 47V31H65.5V47H81.5ZM81.5 30V14H65.5V30H81.5ZM64.5 133V149H48.5V133H64.5ZM64.5 116V132H48.5L48.5 116H64.5ZM64.5 99V115H48.5V99H64.5ZM64.5 82V98H48.5V82H64.5ZM64.5 65V81H48.5V65H64.5ZM64.5 48V64H48.5V48H64.5ZM64.5 31V47H48.5L48.5 31H64.5ZM64.5 14V30H48.5V14H64.5ZM47.5 14H31.5V30H47.5V14ZM47.5 31H31.5L31.5 47H47.5L47.5 31ZM47.5 48H31.5V64H47.5V48ZM47.5 65H31.5V81H47.5V65ZM47.5 82H31.5V98H47.5V82ZM47.5 99H31.5V115H47.5V99ZM47.5 116H31.5L31.5 132H47.5L47.5 116ZM47.5 133H31.5V149H47.5V133ZM30.5 133V149H14.5L14.5 133H30.5ZM30.5 116L30.5 132H14.5V116H30.5ZM30.5 99V115H14.5L14.5 99H30.5ZM30.5 82V98H14.5V82H30.5ZM30.5 65V81H14.5V65H30.5ZM30.5 48V64H14.5L14.5 48H30.5ZM30.5 31L30.5 47H14.5V31H30.5ZM30.5 14V30H14.5L14.5 14H30.5Z" fill="url(#paint0_radial_9_636)"/>
</g>
<g clip-path="url(#clip0_9_636)">
<path d="M152 82C152 91.1925 150.189 100.295 146.672 108.788C143.154 117.281 137.998 124.997 131.497 131.497C124.997 137.998 117.281 143.154 108.788 146.672C100.295 150.189 91.1925 152 82 152C72.8075 152 63.7049 150.189 55.2122 146.672C46.7194 143.154 39.0026 137.998 32.5025 131.497C26.0024 124.997 20.8463 117.281 17.3284 108.788C13.8106 100.295 12 91.1925 12 82L82 82H152Z" fill="url(#paint1_linear_9_636)"/>
</g>
<rect x="12" y="92" width="140" height="2" fill="url(#paint2_linear_9_636)"/>
<circle cx="82" cy="82" r="80.5" stroke="#25D17F" stroke-width="3"/>
<defs>
<radialGradient id="paint0_radial_9_636" cx="0" cy="0" r="1" gradientUnits="userSpaceOnUse" gradientTransform="translate(82 81.5) rotate(90) scale(85)">
<stop stop-color="#01BC8D" stop-opacity="0.16"/>
<stop offset="1" stop-color="#01BC8D" stop-opacity="0"/>
</radialGradient>
<linearGradient id="paint1_linear_9_636" x1="82" y1="12" x2="82" y2="152" gradientUnits="userSpaceOnUse">
<stop stop-color="#01BC8D" stop-opacity="0.16"/>
<stop offset="1" stop-color="#01BC8D" stop-opacity="0"/>
</linearGradient>
<linearGradient id="paint2_linear_9_636" x1="152" y1="94.0001" x2="12" y2="94" gradientUnits="userSpaceOnUse">
<stop stop-color="#00C27C" stop-opacity="0"/>
<stop offset="0.486833" stop-color="#00C27C"/>
<stop offset="1" stop-color="#01BC8D" stop-opacity="0"/>
</linearGradient>
<clipPath id="clip0_9_636">
<rect width="140" height="59" fill="white" transform="translate(12 93)"/>
</clipPath>
</defs>
</svg>
