<svg width="195" height="122" viewBox="0 0 195 122" fill="none" xmlns="http://www.w3.org/2000/svg">
<path d="M101.836 74.6024L109.357 71.8241C110.752 71.3096 110.752 70.4664 109.357 69.9505L100.708 66.7563L101.836 74.6024Z" fill="black" stroke="white" stroke-width="0.370227"/>
<path d="M102.825 48.9321L56.5719 65.9111C52.6622 67.347 46.305 67.3522 42.3717 65.9216L28.7402 60.9707C26.7644 60.254 25.7765 59.3099 25.7765 58.3684L25.7634 83.51C25.7634 84.4516 26.7513 85.3957 28.7271 86.1123L42.3612 91.0659C46.2945 92.4939 52.6517 92.4886 56.5614 91.0554L102.815 74.0763C104.762 73.3623 105.734 72.426 105.734 71.4923L105.747 46.3507C105.747 47.2844 104.775 48.2207 102.828 48.9347L102.825 48.9321Z" fill="white"/>
<mask id="mask0_305_271" style="mask-type:alpha" maskUnits="userSpaceOnUse" x="25" y="46" width="81" height="47">
<path d="M102.825 48.9331L56.5719 65.9122C52.6622 67.348 46.305 67.3533 42.3717 65.9226L28.7402 60.9717C26.7644 60.2551 25.7765 59.311 25.7765 58.3694L25.7634 83.5111C25.7634 84.4526 26.7513 85.3968 28.7271 86.1134L42.3612 91.0669C46.2945 92.4949 52.6517 92.4897 56.5614 91.0565L102.815 74.0774C104.762 73.3634 105.734 72.4271 105.734 71.4934L105.747 46.3517C105.747 47.2854 104.775 48.2217 102.828 48.9357L102.825 48.9331Z" fill="white"/>
</mask>
<g mask="url(#mask0_305_271)">
<path d="M49.614 111.218C50.7935 111.218 51.9715 111.064 52.8604 110.734L109.063 89.952C109.957 89.6296 110.404 89.2028 110.404 88.7775V47.1411L51.9823 68.7479C50.6776 69.2208 49.6093 70.7361 49.6093 72.1148L49.614 111.218Z" fill="#EBE9E9"/>
</g>
<path d="M94.3475 65.839C94.4115 65.8152 94.4777 65.8174 94.538 65.8448C94.5958 65.8711 94.6403 65.9174 94.6727 65.9688C94.7369 66.0707 94.7694 66.2158 94.7694 66.3751V66.7306C94.7694 66.8918 94.7362 67.051 94.6806 67.1798C94.6274 67.3028 94.5428 67.4227 94.4247 67.4669H94.4237L63.0116 78.877C62.9473 78.901 62.8814 78.899 62.8212 78.8712C62.7636 78.8445 62.7188 78.7987 62.6864 78.7472C62.6224 78.6451 62.5897 78.4999 62.5897 78.3419V77.9864C62.5897 77.8256 62.6228 77.6666 62.6776 77.5382C62.7297 77.4161 62.8129 77.2957 62.9325 77.253L94.3475 65.8399V65.839Z" fill="#D9D9D9" stroke="black" stroke-width="0.222136" stroke-miterlimit="10"/>
<mask id="mask1_305_271" style="mask-type:alpha" maskUnits="userSpaceOnUse" x="62" y="65" width="33" height="14">
<path d="M94.3861 65.9445C94.5364 65.8883 94.6586 66.0821 94.6586 66.3759V66.7322C94.6586 67.026 94.5364 67.3073 94.3861 67.3635L62.9735 78.7747C62.8232 78.831 62.7011 78.6341 62.7011 78.3434V77.9871C62.7011 77.6933 62.8201 77.412 62.9704 77.3589L94.3861 65.9445Z" fill="white"/>
</mask>
<g mask="url(#mask1_305_271)">
<path d="M93.4748 65.6509C93.6251 65.5946 93.7472 65.7884 93.7472 66.0822V66.4385C93.7472 66.7323 93.6251 67.0136 93.4748 67.0699L62.0622 78.4811C61.9119 78.5373 61.7898 78.3404 61.7898 78.0498V77.6935C61.7898 77.3997 61.9088 77.1184 62.0591 77.0652L93.4748 65.6509Z" fill="black" stroke="white" stroke-width="0.222136" stroke-miterlimit="10"/>
<path d="M94.6585 66.3759C94.6585 66.1446 94.5833 65.9758 94.4769 65.9414C94.2044 65.8539 93.8412 65.7352 93.5656 65.6476C93.6721 65.682 93.7472 65.8508 93.7472 66.0821V66.4384C93.7472 66.7322 93.6251 67.0135 93.4748 67.0697L62.0622 78.481C62.0309 78.4935 61.9996 78.4935 61.9714 78.481C62.2438 78.5685 62.6071 78.6873 62.8827 78.7748C62.9108 78.7841 62.9422 78.7841 62.9735 78.7748L94.386 67.3635C94.5364 67.3073 94.6585 67.026 94.6585 66.7322V66.3759Z" fill="white" stroke="black" stroke-width="0.222136" stroke-miterlimit="10"/>
</g>
<path d="M94.3475 62.1444C94.4114 62.1206 94.4777 62.1228 94.5379 62.1503C94.5957 62.1766 94.6402 62.2228 94.6727 62.2743C94.7369 62.3761 94.7694 62.5212 94.7694 62.6805V63.036C94.7694 63.1972 94.7362 63.3565 94.6805 63.4852C94.6274 63.6082 94.5428 63.7281 94.4247 63.7723H94.4237L63.0116 75.1825C62.9473 75.2064 62.8813 75.2045 62.8212 75.1766C62.7635 75.15 62.7187 75.1041 62.6864 75.0526C62.6224 74.9506 62.5897 74.8054 62.5897 74.6473V74.2919C62.5897 74.1311 62.6228 73.9721 62.6776 73.8436C62.7297 73.7216 62.8128 73.6011 62.9325 73.5585L94.3475 62.1454V62.1444Z" fill="#D9D9D9" stroke="black" stroke-width="0.222136" stroke-miterlimit="10"/>
<mask id="mask2_305_271" style="mask-type:alpha" maskUnits="userSpaceOnUse" x="62" y="62" width="33" height="14">
<path d="M94.386 62.2492C94.5364 62.193 94.6585 62.3867 94.6585 62.6805V63.0368C94.6585 63.3306 94.5364 63.6119 94.386 63.6682L62.9735 75.0794C62.8232 75.1357 62.701 74.9388 62.701 74.6481V74.2918C62.701 73.998 62.82 73.7167 62.9703 73.6636L94.386 62.2492Z" fill="white"/>
</mask>
<g mask="url(#mask2_305_271)">
<path d="M93.4747 61.9553C93.625 61.899 93.7472 62.0928 93.7472 62.3866V62.7429C93.7472 63.0367 93.625 63.318 93.4747 63.3743L62.0621 74.7855C61.9118 74.8418 61.7897 74.6449 61.7897 74.3542V73.9979C61.7897 73.7041 61.9087 73.4228 62.059 73.3696L93.4747 61.9553Z" fill="black" stroke="white" stroke-width="0.222136" stroke-miterlimit="10"/>
<path d="M94.6584 62.6803C94.6584 62.449 94.5833 62.2802 94.4768 62.2459C94.2044 62.1583 93.8411 62.0396 93.5655 61.9521C93.672 61.9864 93.7472 62.1552 93.7472 62.3865V62.7428C93.7472 63.0366 93.625 63.3179 93.4747 63.3742L62.0621 74.7854C62.0308 74.7979 61.9995 74.7979 61.9713 74.7854C62.2438 74.8729 62.607 74.9917 62.8826 75.0792C62.9108 75.0886 62.9421 75.0886 62.9734 75.0792L94.386 63.668C94.5363 63.6117 94.6584 63.3304 94.6584 63.0366V62.6803Z" fill="white" stroke="black" stroke-width="0.222136" stroke-miterlimit="10"/>
</g>
<path d="M102.825 48.9321L56.5719 65.9111C52.6622 67.347 46.305 67.3522 42.3717 65.9216L28.7402 60.9707C26.7644 60.254 25.7765 59.3099 25.7765 58.3684L25.7634 83.51C25.7634 84.4516 26.7513 85.3957 28.7271 86.1123L42.3612 91.0659C46.2945 92.4939 52.6517 92.4886 56.5614 91.0554L102.815 74.0763C104.762 73.3623 105.734 72.426 105.734 71.4923L105.747 46.3507C105.747 47.2844 104.775 48.2207 102.828 48.9347L102.825 48.9321Z" stroke="black" stroke-width="0.370227" stroke-miterlimit="10"/>
<path d="M102.783 43.7461C106.717 45.1741 106.735 47.4966 102.825 48.9324L56.5718 65.9115C52.6621 67.3473 46.3049 67.3525 42.3716 65.9219L28.7401 60.971C24.8068 59.543 24.7885 57.2206 28.6955 55.7847L74.9489 38.8056C78.8586 37.3698 85.2158 37.3646 89.1517 38.7926L102.786 43.7461H102.783Z" fill="white" stroke="black" stroke-width="0.370227" stroke-miterlimit="10"/>
<path d="M78.8719 47.3609C80.3287 47.9018 80.3354 48.7815 78.8874 49.3253L61.7562 55.7566C60.3082 56.3004 57.9536 56.3024 56.4968 55.7605L51.448 53.8852C49.9912 53.3443 49.9845 52.4647 51.4315 51.9208L68.5627 45.4896C70.0107 44.9457 72.3653 44.9437 73.8231 45.4846L78.8728 47.3609H78.8719Z" fill="black"/>
<path d="M25.6796 82.1565L28.1358 83.0506C28.7858 83.2882 29.3178 82.9153 29.3178 82.2227V79.2982C29.3001 78.9335 29.1798 78.5812 28.9706 78.2821C28.7614 77.9829 28.472 77.7492 28.1358 77.6078L26.6675 77.0721C26.2368 76.9067 25.884 76.5849 25.6796 76.1707" stroke="black" stroke-width="0.370227" stroke-miterlimit="10" stroke-linecap="round"/>
<path d="M27.0226 80.9097C27.3881 80.7929 27.5457 80.2632 27.3746 79.7268C27.2035 79.1903 26.7685 78.8501 26.403 78.967C26.0375 79.0839 25.8799 79.6135 26.051 80.15C26.2221 80.6864 26.6571 81.0266 27.0226 80.9097Z" fill="black"/>
<path d="M65.8103 50.5091L61.7451 47.9674C61.655 47.9107 61.5749 47.8308 61.5115 47.7242L65.5767 50.2659C65.6401 50.3725 65.7202 50.4524 65.8103 50.5091Z" fill="#EBE9E9" stroke="#EBE9E9" stroke-width="0.370227" stroke-miterlimit="10"/>
<path d="M65.5769 50.2657L61.5116 47.7239L60.0998 45.3988L64.165 47.9405L65.5769 50.2657Z" fill="#EBE9E9" stroke="#EBE9E9" stroke-width="0.370227" stroke-miterlimit="10"/>
<path d="M77.2083 16.9339C76.7043 16.6174 76.0435 16.5508 75.3125 16.804L50.7375 25.2486C49.1187 25.8049 47.7737 27.717 47.737 29.5158L47.3898 46.5283C47.3698 47.5176 47.747 48.2638 48.3578 48.6469L52.423 51.1886C51.8122 50.8055 51.4351 50.056 51.4551 49.07L51.8022 32.0542C51.8389 30.2554 53.1806 28.3433 54.8027 27.7869L79.3778 19.3457C80.1087 19.0958 80.7696 19.1625 81.2736 19.4756L77.2083 16.9339Z" fill="white" stroke="black" stroke-width="0.370227" stroke-miterlimit="10"/>
<path d="M79.3777 19.3457C80.9964 18.7894 82.2814 19.7987 82.2447 21.5976L81.8976 38.6133C81.8609 40.4122 80.5192 42.3243 78.8971 42.8806L69.0577 46.2618L67.5291 49.5963C67.3021 50.0893 66.9216 50.4258 66.5411 50.5557C66.1606 50.6856 65.7868 50.609 65.5799 50.2659L64.1681 47.9407L54.3254 51.3219C52.7066 51.8782 51.4216 50.8722 51.4583 49.07L51.8055 32.0542C51.8422 30.2554 53.1839 28.3433 54.806 27.787L79.3777 19.3457Z" fill="#EBE9E9" stroke="black" stroke-width="0.370227" stroke-miterlimit="10"/>
<path d="M65.4796 43.1598L64.4649 42.5235C64.4382 42.5069 64.4115 42.4869 64.3848 42.4669L65.3995 43.1032C65.4262 43.1232 65.4529 43.1432 65.4796 43.1598Z" fill="#EBE9E9" stroke="black" stroke-width="0.370227" stroke-miterlimit="10"/>
<path d="M75.7462 26.2275C75.4725 26.0576 75.1287 26.0409 74.7816 26.1608C74.3978 26.2908 74.0139 26.5872 73.7135 27.0103L65.5563 38.6162L66.571 39.2524L74.7282 27.6466C75.0252 27.2235 75.4124 26.927 75.7962 26.7971C76.1433 26.6772 76.4871 26.6938 76.7608 26.8637L75.7462 26.2275Z" fill="#EBE9E9" stroke="black" stroke-width="0.370227" stroke-miterlimit="10"/>
<path d="M60.6234 36.9675C60.9204 36.5445 61.3076 36.248 61.6881 36.1181C62.0352 35.9982 62.379 36.0115 62.6526 36.1847L61.638 35.5484C61.3643 35.3786 61.0205 35.3619 60.6734 35.4818C60.2896 35.6117 59.9058 35.9082 59.6054 36.3313C59.0079 37.1807 58.9879 38.2301 59.5587 38.6798L64.3849 42.4707L65.3995 43.1069L60.5733 39.316C60.0026 38.8663 60.0259 37.817 60.62 36.9675H60.6234Z" fill="#EBE9E9" stroke="black" stroke-width="0.370227" stroke-miterlimit="10"/>
<path d="M75.7964 26.7969C76.1802 26.667 76.5573 26.697 76.8444 26.9202C77.4151 27.3665 77.3917 28.4192 76.7976 29.2687L67.6024 42.3503C67.3054 42.7733 66.9216 43.0632 66.5411 43.1931C66.0671 43.3563 65.69 43.3263 65.4063 43.1031L60.58 39.3122C60.0093 38.8625 60.0327 37.8132 60.6268 36.9637C60.9238 36.5407 61.311 36.2442 61.6915 36.1143C62.072 35.9844 62.4525 36.0143 62.7395 36.2375L66.5745 39.2523L74.7316 27.6464C75.0287 27.2233 75.4159 26.9268 75.7997 26.7969H75.7964Z" fill="#87B7F7" stroke="black" stroke-width="0.370227" stroke-miterlimit="10"/>
<path d="M165.573 92.7169L173.094 89.9386C174.489 89.4241 174.489 88.5809 173.094 88.065L164.445 84.8708L165.573 92.7169Z" fill="black" stroke="white" stroke-width="0.370227"/>
<path d="M164.571 76.5843L138.164 86.2786C134.825 87.5049 129.394 87.5094 126.034 86.2898L99.4712 76.6402C97.786 76.0281 96.9423 75.224 96.9423 74.4176L96.9378 91.0476C96.9378 91.8517 97.7815 92.6558 99.4667 93.2701L126.03 102.92C129.389 104.139 134.819 104.135 138.16 102.909L164.566 93.2143C166.229 92.6045 167.06 91.8048 167.06 91.0074L167.064 74.3774C167.064 75.1748 166.234 75.9745 164.571 76.5843Z" fill="white"/>
<path d="M164.535 72.1554C167.895 73.375 167.91 75.3586 164.571 76.5849L138.165 86.2792C134.825 87.5055 129.394 87.5099 126.035 86.2903L99.4714 76.6407C96.1121 75.4211 96.0964 73.4376 99.4378 72.2113L125.842 62.517C129.181 61.2907 134.611 61.2862 137.97 62.5058L164.533 72.1554H164.535Z" fill="white" stroke="black" stroke-width="0.370227" stroke-miterlimit="10"/>
<mask id="mask3_305_271" style="mask-type:alpha" maskUnits="userSpaceOnUse" x="96" y="74" width="72" height="30">
<path d="M164.571 76.5843L138.164 86.2786C134.825 87.5049 129.394 87.5094 126.034 86.2898L99.4712 76.6402C97.786 76.0281 96.9423 75.224 96.9423 74.4176L96.9378 91.0476C96.9378 91.8517 97.7815 92.6558 99.4667 93.2701L126.03 102.92C129.389 104.139 134.819 104.135 138.16 102.909L164.566 93.2143C166.229 92.6045 167.06 91.8048 167.06 91.0074L167.064 74.3774C167.064 75.1748 166.234 75.9745 164.571 76.5843Z" fill="white"/>
</mask>
<g mask="url(#mask3_305_271)">
<path d="M133.266 104.224C134.445 104.224 135.623 104.071 136.512 103.741L166.511 92.8969C167.404 92.5745 167.851 92.1477 167.851 91.7224V76.2399L135.634 87.9082C134.33 88.3811 133.261 89.8965 133.261 91.2752L133.266 104.224Z" fill="#EBE9E9"/>
</g>
<path d="M164.571 76.5832L138.164 86.2775C134.825 87.5038 129.394 87.5083 126.034 86.2887L99.4713 76.6391C97.786 76.0271 96.9423 75.2229 96.9423 74.4165L96.9378 91.0465C96.9378 91.8506 97.7816 92.6548 99.4668 93.269L126.03 102.919C129.389 104.138 134.819 104.134 138.16 102.907L164.566 93.2132C166.229 92.6034 167.06 91.8037 167.06 91.0063L167.064 74.3763C167.064 75.1738 166.234 75.9734 164.571 76.5832V76.5832Z" stroke="black" stroke-width="0.370227" stroke-miterlimit="10"/>
<path d="M137.236 82.778L156.75 75.5544C160.371 74.2167 160.371 72.0243 156.75 70.6829L134.31 62.378L137.236 82.778Z" fill="black"/>
<path d="M154.373 66.9542L140.944 53.4953C140.587 53.1399 140.163 52.9011 139.708 52.7954L128.577 50.1496C129.032 50.2579 129.456 50.4941 129.813 50.8495L143.242 64.3084C143.975 65.0432 144.266 66.1376 144.023 67.2339C143.781 68.3302 143.05 69.1985 142.073 69.5574L124.174 76.156C123.669 76.3415 123.155 76.3725 122.673 76.2571L133.804 78.903C134.286 79.0184 134.8 78.9873 135.304 78.8019L153.204 72.2032C154.182 71.8414 154.911 70.9734 155.154 69.8797C155.397 68.7835 155.106 67.6916 154.373 66.9542Z" fill="black" stroke="black" stroke-width="0.370227" stroke-miterlimit="10"/>
<path d="M128.883 48.8794C128.199 48.7158 127.466 48.7617 126.752 49.0238C125.362 49.5355 124.324 50.7698 123.977 52.3276L119.509 72.3832C119.162 73.941 119.577 75.4941 120.619 76.5403C121.125 77.0456 121.728 77.3803 122.371 77.5359L133.501 80.1815C132.855 80.0289 132.255 79.6938 131.749 79.186C130.707 78.1398 130.291 76.5867 130.639 75.0289L135.106 54.9732C135.454 53.4154 136.492 52.1811 137.882 51.6695C138.598 51.407 139.329 51.3615 140.013 51.525L128.883 48.8794V48.8794Z" fill="white" stroke="black" stroke-width="0.370227" stroke-miterlimit="10"/>
<path d="M155.195 65.9728C156.238 67.019 156.653 68.5722 156.306 70.1301C155.959 71.6854 154.923 72.922 153.533 73.4336L135.634 80.032C134.247 80.5433 132.793 80.2245 131.751 79.1809C130.709 78.1347 130.293 76.5815 130.64 75.0236L135.109 54.9671C135.456 53.4093 136.494 52.1749 137.884 51.6633C139.274 51.1516 140.725 51.4682 141.767 52.5144L155.195 65.9728ZM155.156 69.8754C155.399 68.7792 155.109 67.6874 154.375 66.95L140.947 53.4916C140.211 52.7571 139.189 52.5311 138.213 52.8925C137.237 53.2539 136.506 54.1223 136.263 55.2185L131.793 75.2753C131.55 76.3716 131.84 77.4634 132.574 78.2008C133.31 78.9353 134.331 79.1587 135.307 78.7973L153.206 72.1989C154.185 71.8371 154.913 70.9691 155.156 69.8754Z" fill="white"/>
<path d="M155.156 69.8754C155.399 68.7792 155.109 67.6874 154.375 66.95L140.947 53.4916C140.211 52.7571 139.189 52.5311 138.213 52.8925C137.237 53.2539 136.506 54.1223 136.263 55.2185L131.793 75.2753C131.55 76.3716 131.84 77.4634 132.574 78.2008C133.31 78.9353 134.331 79.1587 135.307 78.7973L153.206 72.1989C154.185 71.8371 154.913 70.9691 155.156 69.8754M155.195 65.9728C156.238 67.019 156.653 68.5722 156.306 70.1301C155.959 71.6854 154.923 72.922 153.533 73.4336L135.634 80.032C134.247 80.5433 132.793 80.2245 131.751 79.1809C130.709 78.1347 130.293 76.5815 130.64 75.0236L135.109 54.9671C135.456 53.4093 136.494 52.1749 137.884 51.6633C139.274 51.1516 140.725 51.4682 141.767 52.5144L155.195 65.9728V65.9728Z" stroke="black" stroke-width="0.370227" stroke-miterlimit="10"/>
<path d="M139.803 79.4868C138.745 82.3813 136.328 84.1828 133.832 83.2763L112.767 75.6147C110.211 74.6851 109.582 71.7724 110.639 68.8778L133.23 7.00743C134.287 4.11288 136.749 2.32464 139.2 3.20968L160.267 10.8795C162.632 11.7398 163.451 14.7218 162.395 17.6164L139.803 79.4868Z" fill="white" stroke="black" stroke-width="0.370227" stroke-miterlimit="10" stroke-linecap="round"/>
<path fill-rule="evenodd" clip-rule="evenodd" d="M146.432 61.3309C145.89 61.2979 145.338 61.1849 144.785 60.9842L117.179 50.9655L110.639 68.8782C109.582 71.7727 110.21 74.6855 112.766 75.6151L133.832 83.2766C136.328 84.1831 138.745 82.3817 139.802 79.4871L146.432 61.3309Z" fill="black"/>
<path d="M146.432 61.3309L146.606 61.3944L146.691 61.1612L146.444 61.1462L146.432 61.3309ZM144.785 60.9842L144.721 61.1582L144.722 61.1582L144.785 60.9842ZM117.179 50.9655L117.242 50.7915L117.069 50.7285L117.005 50.902L117.179 50.9655ZM110.639 68.8782L110.813 68.9417L110.813 68.9417L110.639 68.8782ZM112.766 75.6151L112.83 75.4411H112.83L112.766 75.6151ZM133.832 83.2766L133.768 83.4506L133.769 83.4506L133.832 83.2766ZM139.802 79.4871L139.976 79.5506L139.976 79.5506L139.802 79.4871ZM146.432 61.3309L146.444 61.1462C145.919 61.1142 145.385 61.0049 144.848 60.8101L144.785 60.9842L144.722 61.1582C145.292 61.3648 145.86 61.4816 146.421 61.5157L146.432 61.3309ZM144.785 60.9842L144.848 60.8102L117.242 50.7915L117.179 50.9655L117.116 51.1395L144.721 61.1582L144.785 60.9842ZM110.639 68.8782L110.813 68.9417L117.353 51.029L117.179 50.9655L117.005 50.902L110.465 68.8147L110.639 68.8782ZM112.766 75.6151L112.83 75.4411C111.613 74.9984 110.855 74.0872 110.526 72.9326C110.194 71.7724 110.294 70.3614 110.813 68.9417L110.639 68.8782L110.465 68.8147C109.926 70.2895 109.812 71.7821 110.17 73.0343C110.529 74.2921 111.364 75.3021 112.703 75.789L112.766 75.6151ZM133.832 83.2766L133.895 83.1027L112.83 75.4411L112.766 75.6151L112.703 75.789L133.768 83.4506L133.832 83.2766ZM139.802 79.4871L139.629 79.4236C139.111 80.8419 138.264 81.9805 137.254 82.6533C136.249 83.3234 135.082 83.5335 133.895 83.1026L133.832 83.2766L133.769 83.4506C135.078 83.9263 136.368 83.6889 137.46 82.9613C138.547 82.2363 139.437 81.027 139.976 79.5506L139.802 79.4871ZM146.432 61.3309L146.258 61.2674L139.629 79.4236L139.802 79.4871L139.976 79.5506L146.606 61.3944L146.432 61.3309Z" fill="black"/>
<path d="M162.746 13.8419C162.746 13.8419 162.36 12.5209 161.866 12.0156L159.654 11.19L159.882 12.828L162.746 13.8419Z" fill="black"/>
<path d="M162.395 17.6157C162.595 17.0724 162.73 16.5077 162.799 15.9331L160.396 15.0894L135.62 81.5253L137.989 82.2931C138.811 81.511 139.435 80.5449 139.809 79.4745L162.395 17.6157Z" fill="black"/>
<path d="M137.99 82.2938C138.812 81.5117 139.435 80.5456 139.809 79.4752L147.091 59.4938" stroke="#EBE9E9" stroke-width="0.370227" stroke-miterlimit="10" stroke-linecap="round"/>
<path d="M137.707 78.7184C136.649 81.613 134.232 83.4145 131.736 82.5079L110.666 74.8464C108.424 74.0373 107.483 71.0041 108.54 68.1095L131.13 6.24407C132.188 3.34952 134.648 1.56127 137.101 2.44631L158.166 10.1095C160.532 10.9698 161.351 13.9519 160.294 16.8464L137.707 78.7184Z" fill="#EBE9E9" stroke="black" stroke-width="0.370227" stroke-miterlimit="10" stroke-linecap="round"/>
<path d="M157.609 29.6955C157.708 29.4231 157.568 29.1217 157.295 29.0224C157.022 28.9231 156.72 29.0635 156.62 29.336L154.441 35.3059C154.341 35.5783 154.482 35.8797 154.755 35.979C155.028 36.0783 155.33 35.9379 155.429 35.6654L157.609 29.6955Z" fill="white" stroke="black" stroke-width="0.370227" stroke-miterlimit="10" stroke-linecap="round"/>
<path d="M157.751 11.0212C150.773 8.48617 143.754 6.12235 136.838 3.41913C134.818 2.686 132.793 4.15721 131.923 6.53989L109.332 68.3987C108.462 70.7814 109.233 73.2698 111.082 73.9434L131.997 81.5489C134.047 82.2952 136.04 80.8124 136.911 78.4297L159.501 16.5643C160.372 14.1816 159.697 11.728 157.751 11.0212Z" fill="white"/>
<path d="M133.743 17.7999C132.469 17.3381 130.831 18.6044 130.094 20.627L121.985 42.8655C121.248 44.8881 121.685 46.9082 122.959 47.3701L123.33 47.5046C122.056 47.0427 121.619 45.0201 122.356 43L130.465 20.7615C131.202 18.7389 132.837 17.4726 134.114 17.9344L133.743 17.7999Z" fill="white" stroke="black" stroke-width="0.370227" stroke-miterlimit="10"/>
<path d="M149.916 22.5939C151.523 23.1775 152.075 25.7255 151.145 28.2734L143.036 50.5119C142.108 53.0598 140.043 54.6586 138.436 54.0749L122.611 48.3243C121.004 47.7407 120.454 45.1927 121.382 42.6448L129.491 20.4063C130.419 17.8584 132.481 16.2596 134.088 16.8433L149.914 22.5939H149.916Z" fill="#87B7F7" stroke="black" stroke-width="0.370227" stroke-miterlimit="10"/>
<path d="M150.288 22.7314L149.916 22.5969C151.523 23.1806 152.075 25.7285 151.144 28.2764L143.036 50.5149C142.108 53.0628 140.043 54.6616 138.436 54.0779L138.807 54.2124C140.414 54.7961 142.476 53.1973 143.407 50.6494L151.516 28.4109C152.444 25.863 151.895 23.3151 150.288 22.7314Z" fill="black" stroke="black" stroke-width="0.370227" stroke-miterlimit="10"/>
<path d="M135.332 35.3095C138.693 36.5302 140.074 41.4103 138.772 46.6889C138.533 47.6558 137.765 48.3384 137.17 48.1227L125.669 43.9455C125.074 43.7298 124.927 42.7147 125.367 41.8214C127.77 36.9413 131.97 34.0888 135.332 35.3095Z" fill="white" stroke="black" stroke-width="0.370227" stroke-miterlimit="10"/>
<path d="M135.332 35.3087L136.26 35.6462C139.621 36.8669 141.002 41.747 139.7 47.0256C139.461 47.9925 138.693 48.6752 138.098 48.4595L137.17 48.1219C137.765 48.3376 138.533 47.6575 138.772 46.6881C140.074 41.407 138.691 36.5294 135.332 35.3087Z" fill="black" stroke="black" stroke-width="0.370227" stroke-miterlimit="10"/>
<path d="M139.873 22.8606L140.801 23.1981C142.797 23.9239 143.481 27.0758 142.324 30.243C141.169 33.4076 138.614 35.387 136.618 34.6638L135.69 34.3263C137.686 35.0521 140.241 33.0726 141.396 29.9055C142.55 26.7383 141.869 23.5839 139.873 22.8606Z" fill="black" stroke="black" stroke-width="0.370227" stroke-miterlimit="10"/>
<path d="M141.396 29.9031C142.551 26.7369 141.868 23.5822 139.872 22.857C137.875 22.1317 135.321 24.1104 134.166 27.2766C133.012 30.4428 133.694 33.5974 135.691 34.3227C137.687 35.048 140.242 33.0693 141.396 29.9031Z" fill="white" stroke="black" stroke-width="0.370227" stroke-miterlimit="10"/>
<path d="M131.604 63.6449C132.436 63.9469 132.718 65.259 132.237 66.5761C131.757 67.8932 130.694 68.7179 129.862 68.4159L118.469 64.2768C117.64 63.9748 117.355 62.6628 117.835 61.3432C118.316 60.0235 119.379 59.2038 120.208 59.5058L131.602 63.6449H131.604Z" fill="#050505" stroke="black" stroke-width="0.370227" stroke-miterlimit="10"/>
<path d="M96.8959 89.8295L99.352 90.7236C100.002 90.9612 100.534 90.5883 100.534 89.8957V86.9712C100.516 86.6065 100.396 86.2542 100.187 85.9551C99.9777 85.6559 99.6883 85.4222 99.352 85.2808L97.8838 84.7451C97.453 84.5797 97.1003 84.2579 96.8959 83.8438" stroke="black" stroke-width="0.370227" stroke-miterlimit="10" stroke-linecap="round"/>
<path d="M98.239 88.5828C98.6045 88.466 98.7621 87.9363 98.591 87.3999C98.4199 86.8634 97.9849 86.5232 97.6194 86.6401C97.2539 86.757 97.0963 87.2866 97.2674 87.8231C97.4385 88.3595 97.8735 88.6997 98.239 88.5828Z" fill="black"/>
<path d="M138.856 96.9296C139.221 97.0464 139.379 97.5761 139.208 98.1125C139.037 98.649 138.602 98.9892 138.236 98.8723C137.871 98.7554 137.713 98.2258 137.884 97.6893C138.055 97.1528 138.49 96.8127 138.856 96.9296Z" fill="black"/>
<path d="M167.654 102.681L172.933 100.764C173.912 100.409 173.912 99.8268 172.933 99.4707L166.863 97.2662L167.654 102.681Z" fill="black" stroke="white" stroke-width="0.370227"/>
<path d="M167.711 102.666L162.995 104.356C162.53 104.522 162.114 104.013 162.37 103.592L167.973 94.3777C168.248 93.9254 168.946 94.1188 168.946 94.6479V100.493C168.946 101.981 168.122 102.562 167.711 102.666Z" fill="#EBE9E9" stroke="black" stroke-width="0.370227"/>
<path d="M160.397 91.4927C160.659 91.0664 161.186 90.8837 161.656 91.0567L168.163 93.4527C168.783 93.6807 169.038 94.4162 168.693 94.9782L163.154 103.997C162.892 104.424 162.365 104.606 161.895 104.433L155.388 102.037C154.768 101.809 154.513 101.074 154.858 100.512L160.397 91.4927Z" fill="white" stroke="black" stroke-width="0.370227"/>
<mask id="mask4_305_271" style="mask-type:alpha" maskUnits="userSpaceOnUse" x="154" y="90" width="15" height="15">
<path d="M160.397 91.4927C160.659 91.0664 161.187 90.8837 161.656 91.0567L168.163 93.4527C168.783 93.6807 169.038 94.4162 168.693 94.9782L163.154 103.997C162.892 104.424 162.365 104.606 161.895 104.433L155.388 102.037C154.769 101.809 154.513 101.074 154.858 100.512L160.397 91.4927Z" fill="#2D3033"/>
</mask>
<g mask="url(#mask4_305_271)">
<path fill-rule="evenodd" clip-rule="evenodd" d="M160.35 95.0929C160.115 95.0062 159.85 95.0981 159.72 95.312L155.551 102.139C155.379 102.42 155.507 102.786 155.816 102.9L160.17 104.503C160.406 104.59 160.67 104.498 160.801 104.284L164.969 97.4576C165.141 97.1766 165.013 96.8098 164.704 96.696L160.35 95.0929Z" fill="white" stroke="black" stroke-width="0.370227"/>
</g>
<path d="M160.397 91.4927C160.659 91.0664 161.186 90.8837 161.656 91.0567L168.163 93.4527C168.783 93.6807 169.038 94.4162 168.693 94.9782L163.154 103.997C162.892 104.424 162.365 104.606 161.895 104.433L155.388 102.037C154.768 101.809 154.513 101.074 154.858 100.512L160.397 91.4927Z" stroke="black" stroke-width="0.370227"/>
<ellipse cx="0.785979" cy="1.04635" rx="0.785979" ry="1.04635" transform="matrix(0.94901 0.315246 -0.316344 0.948645 159.532 98.6388)" fill="black"/>
<path d="M138.104 97.7316C138.209 97.466 138.509 97.3349 138.776 97.4396L148.511 101.262L148.561 101.288C149.193 101.619 151.434 102.244 154.238 101.231C157.324 100.115 159.036 99.5237 159.515 99.3644C159.787 99.274 160.081 99.4208 160.172 99.6916C160.262 99.962 160.115 100.254 159.843 100.345C159.378 100.5 157.675 101.088 154.59 102.203C151.515 103.314 148.978 102.671 148.087 102.207L148.079 102.203L148.072 102.2L138.396 98.4015C138.13 98.2969 138 97.997 138.104 97.7316Z" fill="black" stroke="black" stroke-width="0.296181" stroke-linecap="round"/>
<path d="M154.414 101.717C157.5 100.602 159.207 100.012 159.679 99.8546M141.823 99.1911L138.586 97.9203M145.059 100.462L143.441 99.8264" stroke="#87B7F7" stroke-width="0.592363" stroke-linecap="round"/>
<path fill-rule="evenodd" clip-rule="evenodd" d="M26.4496 79.9131C26.5494 80.1843 26.41 80.4848 26.1383 80.5844C25.2125 80.9236 24.5336 81.2331 24.0834 81.4596C23.8106 81.5969 23.6347 81.89 23.6347 82.2434V85.5572C23.6347 86.4303 24.1778 87.2115 24.9972 87.5172L48.1123 96.1389C50.9645 97.2028 54.1066 97.1979 56.9555 96.1252L75.5707 89.4379C78.6092 88.2937 81.9572 88.2703 85.0115 89.3718L93.2055 91.855C93.8887 92.1014 94.6099 91.5962 94.6099 90.8711V89.742C94.6099 88.8738 95.1471 88.0958 95.9599 87.7867L97.6988 87.1256C97.9693 87.0227 98.2721 87.1582 98.3752 87.4281C98.4782 87.6981 98.3425 88.0003 98.072 88.1032L96.3331 88.7643C95.9266 88.9189 95.6581 89.3079 95.6581 89.742V90.8711C95.6581 92.3213 94.2158 93.3317 92.8493 92.8389L84.6553 90.3557C81.8359 89.3389 78.7455 89.3606 75.9407 90.4167L57.3255 97.104C54.2392 98.2661 50.8353 98.2714 47.7453 97.1189L24.6302 88.4971C23.4012 88.0387 22.5865 86.8668 22.5865 85.5572V82.2434C22.5865 81.5446 22.943 80.8618 23.6116 80.5254C24.0974 80.281 24.8132 79.9555 25.777 79.6023C26.0488 79.5028 26.3499 79.6419 26.4496 79.9131Z" fill="black" stroke="black" stroke-width="0.370227" stroke-linecap="round"/>
<path fill-rule="evenodd" clip-rule="evenodd" d="M25.3131 80.3374C25.3798 80.4975 25.3038 80.6811 25.1434 80.7477C24.6633 80.9469 24.2803 81.1264 23.9896 81.2727C23.6375 81.4498 23.4251 81.8213 23.4251 82.2436V82.7089C23.4251 82.8822 23.2843 83.0228 23.1106 83.0228C22.937 83.0228 22.7962 82.8822 22.7962 82.7089V82.2436C22.7962 81.6137 23.1173 81.0086 23.7066 80.7121C24.0108 80.5591 24.4077 80.3732 24.902 80.1681C25.0624 80.1015 25.2464 80.1773 25.3131 80.3374ZM97.4914 87.7644C97.5533 87.9263 97.4718 88.1077 97.3095 88.1694L96.2585 88.569C95.7707 88.7544 95.4484 89.2212 95.4484 89.7421V90.8838C95.4484 91.0571 95.3076 91.1976 95.134 91.1976C94.9603 91.1976 94.8195 91.0571 94.8195 90.8838V89.7421C94.8195 88.9608 95.303 88.2606 96.0346 87.9824L97.0856 87.5828C97.2479 87.5211 97.4296 87.6024 97.4914 87.7644ZM23.1106 83.5609C23.2843 83.5609 23.4251 83.7014 23.4251 83.8747V85.0405C23.4251 85.2138 23.2843 85.3543 23.1106 85.3543C22.937 85.3543 22.7962 85.2138 22.7962 85.0405V83.8747C22.7962 83.7014 22.937 83.5609 23.1106 83.5609Z" fill="#87B7F7"/>
<path fill-rule="evenodd" clip-rule="evenodd" d="M76.4003 89.7061C76.459 89.8692 76.374 90.049 76.2105 90.1075L74.6866 90.6535C74.5231 90.712 74.343 90.6272 74.2844 90.4641C74.2257 90.301 74.3107 90.1212 74.4741 90.0627L75.9981 89.5167C76.1615 89.4582 76.3416 89.543 76.4003 89.7061ZM73.3523 90.798C73.411 90.9611 73.326 91.1409 73.1626 91.1994L67.0667 93.3832C66.9032 93.4417 66.7231 93.3569 66.6645 93.1938C66.6058 93.0307 66.6907 92.8509 66.8542 92.7924L72.9501 90.6086C73.1136 90.5501 73.2937 90.6348 73.3523 90.798Z" fill="#87B7F7"/>
<path d="M76.4003 89.7061C76.459 89.8692 76.374 90.049 76.2105 90.1075L74.6866 90.6535C74.5231 90.712 74.343 90.6272 74.2844 90.4641C74.2257 90.301 74.3107 90.1212 74.4741 90.0627L75.9981 89.5167C76.1615 89.4582 76.3416 89.543 76.4003 89.7061Z" fill="#87B7F7"/>
<path d="M73.3523 90.798C73.411 90.9611 73.326 91.1409 73.1626 91.1994L67.0667 93.3832C66.9032 93.4417 66.7231 93.3569 66.6645 93.1938C66.6058 93.0307 66.6907 92.8509 66.8542 92.7924L72.9501 90.6086C73.1136 90.5501 73.2937 90.6348 73.3523 90.798Z" fill="#87B7F7"/>
<path d="M117.525 106.154C120.884 107.373 120.9 109.357 117.561 110.583L91.1543 120.277C87.8151 121.504 82.3834 121.508 79.0242 120.289L52.461 110.639C49.1018 109.419 49.0861 107.436 52.4275 106.209L78.8317 96.5152C82.1708 95.2889 87.6003 95.2844 90.9596 96.504L117.523 106.154H117.525Z" fill="#EBE9E9" stroke="black" stroke-width="0.370227" stroke-miterlimit="10"/>
<path d="M103.993 112.372L107.62 111.054C108.293 110.81 108.293 110.41 107.62 110.165L103.449 108.65L103.993 112.372Z" fill="black"/>
<path d="M76.7892 104.42C78.1273 104.42 79.4553 104.604 80.4513 104.967H80.4523L96.2785 110.695C96.7789 110.876 97.1403 111.081 97.3732 111.291C97.6057 111.5 97.6974 111.7 97.6974 111.876C97.6974 112.052 97.6057 112.251 97.3732 112.461C97.1412 112.669 96.7817 112.874 96.2843 113.055L92.089 114.407L92.0822 114.41C91.0826 114.773 89.753 114.958 88.4152 114.958C87.2442 114.958 86.0805 114.817 85.1408 114.538L84.7521 114.41L68.924 108.682C68.424 108.501 68.0629 108.295 67.8302 108.086C67.5981 107.877 67.5071 107.677 67.507 107.501C67.507 107.324 67.5979 107.125 67.8302 106.916C68.0619 106.707 68.4206 106.503 68.9171 106.322L73.1154 104.969L73.1212 104.967C74.121 104.604 75.451 104.42 76.7892 104.42Z" fill="white" stroke="black" stroke-width="0.370227" stroke-miterlimit="10" stroke-linecap="round"/>
<path d="M105.725 110.815C105.919 111.114 105.785 111.516 105.45 111.639L95.9581 115.123L95.3136 106.897L101.105 103.722L105.725 110.815Z" fill="#EBE9E9" stroke="black" stroke-width="0.370227"/>
<path d="M72.1096 94.0215C72.3945 93.4143 73.0956 93.1241 73.7259 93.3536L100.154 102.978C100.869 103.238 101.207 104.056 100.884 104.745L96.3323 114.446C96.0474 115.054 95.3463 115.343 94.7161 115.113L68.2874 105.49C67.5723 105.23 67.2347 104.412 67.5579 103.723L72.1096 94.0215Z" fill="white" stroke="black" stroke-width="0.370227"/>
<path d="M72.9776 96.7235C73.3015 96.033 74.0969 95.7015 74.8154 95.9575L97.028 103.873C97.8514 104.166 98.2429 105.105 97.8716 105.897L95.1661 111.663C94.8422 112.354 94.0468 112.685 93.3284 112.429L71.1157 104.514C70.2923 104.221 69.9008 103.282 70.2721 102.49L72.9776 96.7235Z" fill="black"/>
<mask id="mask5_305_271" style="mask-type:alpha" maskUnits="userSpaceOnUse" x="70" y="95" width="29" height="18">
<path d="M72.9776 96.724C73.3016 96.0335 74.097 95.702 74.8154 95.958L97.028 103.873C97.8515 104.167 98.2429 105.106 97.8716 105.897L95.1662 111.664C94.8423 112.354 94.0469 112.686 93.3284 112.43L71.1158 104.515C70.2923 104.221 69.9009 103.282 70.2722 102.491L72.9776 96.724Z" fill="black"/>
</mask>
<g mask="url(#mask5_305_271)">
<path d="M72.3046 102.664L71.4897 102.364L70.9457 103.519L71.7606 103.819L72.3046 102.664Z" fill="#87B7F7"/>
<path d="M92.2233 107.102L91.4083 106.802L90.8643 107.957L91.6792 108.257L92.2233 107.102Z" fill="#87B7F7"/>
<path d="M88.5999 101.578L87.785 101.278L87.241 102.433L88.0559 102.733L88.5999 101.578Z" fill="#87B7F7"/>
<path d="M75.3216 100.41L74.5067 100.11L72.5606 104.089L73.3755 104.389L75.3216 100.41Z" fill="#87B7F7"/>
<path d="M80.7153 101.374L79.9004 101.074L77.9543 105.052L78.7692 105.353L80.7153 101.374Z" fill="#87B7F7"/>
<path d="M83.5244 99.7299L82.7095 99.4296L80.7634 103.409L81.5783 103.709L83.5244 99.7299Z" fill="#87B7F7"/>
<path d="M92.2461 102.808L91.4312 102.508L89.4851 106.486L90.3001 106.787L92.2461 102.808Z" fill="#87B7F7"/>
<path d="M95.6961 107.89L94.8812 107.59L92.9351 111.569L93.75 111.869L95.6961 107.89Z" fill="#87B7F7"/>
<path d="M86.5249 101.886L85.71 101.585L83.3607 106.263L84.1756 106.563L86.5249 101.886Z" fill="#87B7F7"/>
<path d="M77.7437 99.4439L76.9288 99.1436L75.5317 101.937L76.3467 102.237L77.7437 99.4439Z" fill="#87B7F7"/>
<path d="M78.3071 102.234L77.4922 101.934L76.5234 103.903L77.3383 104.203L78.3071 102.234Z" fill="#87B7F7"/>
<path d="M84.5314 101.79L83.7165 101.49L82.7476 103.459L83.5626 103.76L84.5314 101.79Z" fill="#87B7F7"/>
<path d="M90.4425 102.181L89.6275 101.881L88.6587 103.85L89.4736 104.15L90.4425 102.181Z" fill="#87B7F7"/>
<path d="M93.343 108.761L92.528 108.461L91.5592 110.43L92.3741 110.73L93.343 108.761Z" fill="#87B7F7"/>
<path d="M87.7565 103.284L86.9415 102.984L85.9583 104.979L86.7732 105.279L87.7565 103.284Z" fill="#87B7F7"/>
<path d="M94.2174 106.989L93.4025 106.689L92.8584 107.844L93.6734 108.144L94.2174 106.989Z" fill="#87B7F7"/>
<path d="M87.8096 107.718L86.9947 107.418L86.4507 108.572L87.2656 108.873L87.8096 107.718Z" fill="#87B7F7"/>
<path d="M81.0129 104.783L80.1979 104.483L79.6539 105.638L80.4688 105.938L81.0129 104.783Z" fill="#87B7F7"/>
<path d="M76.2136 98.5938L75.3987 98.2935L74.8547 99.4485L75.6696 99.7487L76.2136 98.5938Z" fill="#87B7F7"/>
<path d="M78.405 98.095L77.59 97.7948L77.2223 98.5128L78.0373 98.8131L78.405 98.095Z" fill="#87B7F7"/>
<path d="M96.61 106.109L95.795 105.809L95.251 106.964L96.066 107.264L96.61 106.109Z" fill="#87B7F7"/>
</g>
<path d="M73.1448 96.802C73.4283 96.1979 74.1246 95.9081 74.7532 96.1321L96.9661 104.047C97.6863 104.304 98.0288 105.125 97.7044 105.818L94.9984 111.585C94.7148 112.189 94.0193 112.479 93.3909 112.255L71.178 104.34C70.4575 104.083 70.1149 103.261 70.4398 102.569L73.1448 96.802Z" stroke="black" stroke-width="0.370227"/>
</svg>
