<svg width="160" height="160" viewBox="0 0 160 160" fill="none" xmlns="http://www.w3.org/2000/svg">
<path d="M27.1929 120.906V115.341C27.1929 117.47 28.8988 119.635 32.4988 121.67C45.0753 128.823 76.0753 131.811 101.734 128.364C120.052 125.906 130.699 120.811 130.711 115.506V121.07C130.687 126.376 120.052 131.459 101.722 133.929C76.0635 137.376 45.0635 134.376 32.4871 127.235C28.887 125.188 27.1812 123.023 27.1929 120.906Z" fill="#D5DFE2" stroke="black" stroke-width="0.378378" stroke-linecap="round" stroke-linejoin="round"/>
<path d="M121.452 106.8C109.946 100.259 81.605 97.5179 58.1344 100.683C34.6756 103.836 24.9814 111.694 36.4873 118.236C47.9932 124.777 76.3344 127.518 99.805 124.353C123.264 121.2 132.958 113.341 121.452 106.8Z" fill="white"/>
<path d="M64.6883 125.024L66.2412 123.389C66.4647 123.153 66.3118 122.765 65.9942 122.73C56.6765 121.801 48.5824 119.906 43.8883 117.236C43.7236 117.142 43.5706 117.048 43.4177 116.953C42.8177 116.589 42.1118 116.471 41.4177 116.589L35.4883 117.636" stroke="#D5DFE2" stroke-width="0.378378" stroke-linecap="round" stroke-linejoin="round"/>
<path d="M32.1237 109.224L36.1355 106.859C30.2531 110.33 29.9002 114.494 36.4767 118.235C47.9825 124.777 76.3237 127.518 99.7943 124.353C122.994 121.235 132.724 113.518 121.83 107.024C123.159 107.824 124.5 108.612 125.83 109.412C137.747 116.506 127.1 124.941 101.735 128.353C76.0766 131.8 45.0766 128.8 32.5002 121.659C25.3119 117.577 25.6884 113.024 32.1237 109.224Z" fill="white" stroke="#91A5AA" stroke-width="0.378378" stroke-linecap="round" stroke-linejoin="round"/>
<path d="M130.712 118.931V118.319C130.689 120.401 129.03 122.437 125.924 124.295C125.665 124.448 125.442 124.672 125.289 124.931C124.971 125.484 124.677 125.978 124.359 126.519C124.183 126.825 123.912 127.072 123.595 127.225C118.489 129.637 110.771 131.66 100.889 132.931C100.618 132.966 100.348 132.884 100.148 132.707L99.2418 131.907C98.936 131.637 98.5359 131.507 98.1359 131.554C85.4065 132.942 71.6771 132.837 59.6889 131.484C59.3595 131.448 59.0301 131.554 58.7712 131.778L57.8889 132.566C57.6301 132.801 57.2771 132.907 56.936 132.86C47.7007 131.637 39.6889 129.66 34.2536 127.048C33.983 126.919 33.7712 126.719 33.6301 126.46C33.3124 125.919 32.9477 125.272 32.6889 124.848C32.6183 124.719 32.5007 124.531 32.336 124.378C32.1242 124.189 31.8654 124.048 31.8065 124.013C29.9712 122.884 28.7124 121.719 27.9712 120.554C27.6536 120.037 27.4301 119.531 27.3124 119.013C27.2418 118.707 27.2065 118.401 27.2065 118.107V121.637C27.2065 121.872 27.2418 122.154 27.3007 122.389C27.3007 122.401 27.3007 122.425 27.3124 122.437C27.3712 122.684 27.4418 122.931 27.5477 123.178C27.5477 123.178 27.5595 123.201 27.5595 123.213C27.6654 123.46 27.7948 123.719 27.9477 123.966C27.9477 123.978 27.9712 124.001 27.983 124.013C28.136 124.26 28.3124 124.507 28.5242 124.754C28.5595 124.789 28.5948 124.825 28.6301 124.86C28.8301 125.084 29.0301 125.307 29.2654 125.531C29.336 125.601 29.4183 125.66 29.5007 125.731C29.7124 125.919 29.9242 126.119 30.1712 126.307C30.3242 126.425 30.5007 126.542 30.6654 126.66C30.8536 126.801 31.0301 126.942 31.2418 127.072C31.6301 127.331 32.0418 127.578 32.4889 127.837C37.9712 130.954 46.9595 133.272 57.4654 134.625C59.1007 134.837 60.7712 135.025 62.4771 135.178C62.5242 135.178 62.5712 135.178 62.6183 135.189C64.2654 135.342 65.936 135.472 67.6301 135.589C67.736 135.589 67.8418 135.601 67.936 135.613C69.5948 135.719 71.2771 135.801 72.9712 135.86C73.0771 135.86 73.1712 135.86 73.2771 135.86C75.0183 135.919 76.7712 135.954 78.5242 135.954C78.5595 135.954 78.5948 135.954 78.6301 135.954C86.383 135.978 94.2771 135.531 101.712 134.531C111.501 133.213 119.101 131.154 124.054 128.707C125.112 128.178 126.054 127.637 126.865 127.084C126.889 127.072 126.901 127.06 126.924 127.048C127.301 126.789 127.654 126.519 127.983 126.248C128.018 126.225 128.054 126.189 128.077 126.166C128.383 125.907 128.665 125.637 128.924 125.378C128.959 125.342 128.995 125.307 129.018 125.272C129.265 125.013 129.477 124.742 129.677 124.484C129.701 124.448 129.724 124.413 129.759 124.366C129.948 124.095 130.101 123.825 130.23 123.566C130.242 123.531 130.265 123.495 130.277 123.46C130.407 123.189 130.501 122.907 130.571 122.625C130.571 122.601 130.571 122.578 130.583 122.554C130.642 122.26 130.689 121.978 130.689 121.684V120.719V118.931H130.712Z" fill="#2E4247" stroke="black" stroke-width="0.378378" stroke-linecap="round" stroke-linejoin="round"/>
<path d="M125.839 109.412C124.509 108.612 123.168 107.824 121.839 107.024C121.957 107.095 122.051 107.165 122.157 107.224C121.933 107.083 121.698 106.942 121.451 106.8C109.945 100.259 81.6036 97.5181 58.133 100.683C47.9801 102.047 40.4154 104.295 36.0154 106.93C36.0507 106.906 36.086 106.883 36.133 106.859L32.1213 109.224C25.686 113.024 25.3095 117.577 32.4977 121.659C45.0742 128.812 76.0742 131.8 101.733 128.353C127.098 124.942 137.745 116.506 125.827 109.412H125.839Z" stroke="black" stroke-width="0.378378" stroke-linecap="round" stroke-linejoin="round"/>
<path d="M119.087 107.118C118.546 106.812 117.946 106.506 117.323 106.212C117.205 106.153 117.064 106.13 116.923 106.153L113.652 106.53C113.476 106.553 113.346 106.788 113.534 106.882C114.076 107.13 114.581 107.4 115.052 107.659C119.311 110.082 120.146 112.706 118.099 115.13C117.887 115.388 118.029 115.777 118.358 115.824L121.276 116.224C121.499 116.259 121.723 116.177 121.887 116.024C124.852 113.177 124.158 110.012 119.076 107.13L119.087 107.118Z" fill="#D5DFE2"/>
<path d="M60.6296 102.26C60.2178 102.071 58.9943 101.53 58.9943 101.53C58.8413 101.46 58.6766 101.448 58.5237 101.46C43.2296 103.624 34.359 107.93 34.3354 112.424C34.3354 112.766 34.606 113.048 34.9472 113.024L38.1354 112.836C38.4178 112.824 38.6649 112.601 38.6766 112.319C38.8413 108.295 46.806 104.46 60.4884 102.53C60.6884 102.507 60.9119 102.377 60.6296 102.248V102.26Z" fill="#D5DFE2"/>
<path d="M108.688 108.66C104.982 106.554 98.7583 105.012 91.5347 104.177L79.2642 110.518L93.0995 120.33C93.6053 120.695 94.2406 120.848 94.8642 120.754C110.323 118.436 116.523 113.118 108.699 108.671L108.688 108.66Z" stroke="#D5DFE2" stroke-width="0.378378" stroke-linecap="round" stroke-linejoin="round"/>
<path d="M55.4525 107.365C56.8878 106.883 57.4408 106.718 58.4408 106.436C56.8761 107.012 55.1231 107.483 54.0408 108.812C53.2996 109.718 53.2055 110.812 53.8996 111.777C54.4408 112.518 55.229 113.059 56.0172 113.506C62.229 117.036 77.5349 118.518 90.2172 116.812C102.888 115.106 108.123 110.859 101.911 107.33C101.911 107.33 104.582 108.342 105.453 108.765C107.653 109.801 108.617 111.201 108.558 112.448C108.429 115.448 102.358 118.318 91.9819 119.706C77.2996 121.683 59.5702 119.965 52.3702 115.871C51.2055 115.212 49.829 114.271 49.4408 112.906C49.1113 111.765 49.6878 110.683 50.5349 109.953C51.5231 109.095 53.7349 107.942 55.4408 107.365H55.4525Z" fill="#2E4247" stroke="black" stroke-width="0.378378" stroke-linecap="round" stroke-linejoin="round"/>
<path d="M104.358 108.447C111.24 112.353 105.44 117.047 91.4167 118.942C77.3932 120.824 60.452 119.189 53.5696 115.283C46.6873 111.377 52.4873 106.683 66.5108 104.789C80.5343 102.906 97.4755 104.542 104.358 108.447Z" fill="white" stroke="black" stroke-width="0.378378" stroke-linecap="round" stroke-linejoin="round"/>
<path d="M104.358 108.447C111.24 112.353 105.44 117.047 91.4167 118.942C77.3932 120.824 60.452 119.189 53.5696 115.283C46.6873 111.377 52.4873 106.683 66.5108 104.789C80.5343 102.906 97.4755 104.542 104.358 108.447Z" fill="#D5DFE2" stroke="black" stroke-width="0.378378" stroke-linecap="round" stroke-linejoin="round"/>
<path d="M105.982 109.824C105.982 109.824 105.9 109.742 105.853 109.695L80.4764 114.083L102.935 107.907C102.853 107.871 102.782 107.836 102.7 107.801L80.2529 113.977L98.3117 106.33C98.2058 106.307 98.0999 106.271 97.9823 106.248L79.947 113.883L92.547 105.154C92.4176 105.13 92.2764 105.119 92.147 105.095L79.5588 113.813L86.0294 104.424C85.8882 104.424 85.747 104.401 85.6058 104.389L79.1352 113.777V104.154C78.9823 104.154 78.8411 104.154 78.6882 104.154V113.766L72.2058 104.354C72.0646 104.354 71.9117 104.377 71.7705 104.377L78.2529 113.789L65.6294 105.036C65.4999 105.06 65.3588 105.071 65.2294 105.095L77.8646 113.848L59.7588 106.189C59.6529 106.213 59.5352 106.248 59.4294 106.271L77.547 113.942L55.0764 107.766C54.9941 107.801 54.9117 107.836 54.8411 107.871L77.3352 114.06L51.9941 109.683C51.9941 109.683 51.9117 109.766 51.8764 109.813L77.2294 114.189L50.8882 111.801C50.8882 111.801 50.8882 111.883 50.8882 111.93L77.2294 114.319L51.947 113.954C51.947 113.954 52.0294 114.036 52.0764 114.083L77.3352 114.448L55.0647 115.919C55.147 115.954 55.2411 115.989 55.3235 116.024L77.5588 114.554L59.8411 117.519C59.9588 117.542 60.0647 117.577 60.1823 117.613L77.8882 114.648L65.6764 118.683C65.8058 118.707 65.947 118.719 66.0882 118.742L78.2764 114.707L72.0764 119.377C72.2176 119.377 72.3588 119.401 72.4999 119.413L78.7117 114.73V119.624C78.8646 119.624 79.0058 119.624 79.1588 119.624V114.73L85.3941 119.436C85.5352 119.436 85.6882 119.424 85.8293 119.413L79.5823 114.707L91.9117 118.789C92.0529 118.766 92.1823 118.754 92.3235 118.73L79.9705 114.636L97.9117 117.648C98.0293 117.624 98.147 117.589 98.2646 117.566L80.2764 114.554L102.806 116.048C102.888 116.013 102.971 115.977 103.053 115.93L80.4999 114.436L106.006 114.071C106.006 114.071 106.088 113.989 106.123 113.942L80.6176 114.307L107.1 111.907C107.1 111.907 107.1 111.824 107.1 111.777L80.6294 114.177L106.018 109.789L105.982 109.824Z" fill="white"/>
<path d="M95.2066 112.178C99.6066 114.672 95.9007 117.672 86.936 118.884C77.9713 120.084 67.136 119.037 62.7477 116.543C58.3477 114.049 62.0536 111.049 71.0183 109.837C79.983 108.625 90.8183 109.684 95.2066 112.178Z" fill="white"/>
<path d="M89.4414 113.108C92.2767 114.719 89.8885 116.661 84.1002 117.437C78.312 118.214 71.3238 117.543 68.4885 115.931C65.6532 114.319 68.0414 112.378 73.8296 111.602C79.6179 110.825 86.6061 111.496 89.4414 113.108Z" fill="#25D27F"/>
<path d="M20.1928 102.224C17.5575 96.5059 42.2399 79.4824 75.3458 64.2C108.44 48.9177 137.416 41.1647 140.052 46.8824" stroke="black" stroke-width="0.378378" stroke-linecap="round" stroke-linejoin="round"/>
<path d="M37.9928 86.3647C38.9804 86.3647 39.7811 85.5641 39.7811 84.5764C39.7811 83.5888 38.9804 82.7882 37.9928 82.7882C37.0052 82.7882 36.2046 83.5888 36.2046 84.5764C36.2046 85.5641 37.0052 86.3647 37.9928 86.3647Z" fill="#25D27F"/>
<path d="M48.9055 16.0819C50.4226 16.0819 51.6523 14.8521 51.6523 13.3351C51.6523 11.818 50.4226 10.5882 48.9055 10.5882C47.3885 10.5882 46.1587 11.818 46.1587 13.3351C46.1587 14.8521 47.3885 16.0819 48.9055 16.0819Z" fill="white" stroke="#121212" stroke-width="0.378378" stroke-miterlimit="10" stroke-linecap="round" stroke-linejoin="round"/>
<path d="M23.7264 26.1536C24.485 26.1536 25.0998 25.5387 25.0998 24.7802C25.0998 24.0217 24.485 23.4068 23.7264 23.4068C22.9679 23.4068 22.353 24.0217 22.353 24.7802C22.353 25.5387 22.9679 26.1536 23.7264 26.1536Z" fill="white" stroke="#121212" stroke-width="0.378378" stroke-miterlimit="10" stroke-linecap="round" stroke-linejoin="round"/>
<path d="M31.5459 34.394L26.9316 39.0082L31.5459 43.6225L36.1601 39.0082L31.5459 34.394Z" fill="white" stroke="#121212" stroke-width="0.378378" stroke-miterlimit="9.9998" stroke-linecap="round" stroke-linejoin="round"/>
<path d="M82.2705 26.9932C100.641 26.9932 115.483 44.5553 115.483 66.1504C115.483 87.7457 100.642 105.308 82.2705 105.308C78.837 105.308 74.6951 105.484 71.1455 104.893L71.1299 104.89L71.1143 104.885C57.3121 100.097 49.0576 83.891 49.0576 66.1504C49.0577 48.487 57.4069 32.3252 71.1133 27.4688L71.126 27.4639L71.1396 27.462C74.1047 26.8689 78.9788 26.9932 82.2705 26.9932Z" fill="#D8E2E5" stroke="black" stroke-width="0.378378"/>
<mask id="mask0_1_2922" style="mask-type:alpha" maskUnits="userSpaceOnUse" x="49" y="27" width="67" height="79">
<ellipse cx="82.2711" cy="66.1508" rx="33.0236" ry="38.9678" fill="#D8E2E5"/>
</mask>
<g mask="url(#mask0_1_2922)">
<rect x="98.0718" y="40.0836" width="17.21" height="5.37812" transform="rotate(-13.2032 98.0718 40.0836)" fill="white"/>
<rect x="99.2285" y="47.0005" width="17.21" height="2.22877" transform="rotate(-13.2032 99.2285 47.0005)" fill="white"/>
</g>
<ellipse cx="75.3766" cy="66.1498" rx="33.0236" ry="38.9678" fill="white" stroke="black" stroke-width="0.378378"/>
<path d="M75.3765 37.688C88.4616 37.688 99.0122 50.4661 99.0122 66.1509C99.0122 81.8357 88.4616 94.6138 75.3765 94.6138C62.2913 94.6137 51.7407 81.8357 51.7407 66.1509C51.7408 50.4661 62.2914 37.688 75.3765 37.688Z" fill="#3AD68B" stroke="black" stroke-width="0.378378"/>
<g opacity="0.8">
<mask id="mask1_1_2922" style="mask-type:alpha" maskUnits="userSpaceOnUse" x="51" y="37" width="48" height="58">
<ellipse cx="75.3385" cy="66.1114" rx="23.4464" ry="28.2736" fill="url(#paint0_linear_1_2922)"/>
</mask>
<g mask="url(#mask1_1_2922)">
<line y1="-0.189189" x2="59.5456" y2="-0.189189" transform="matrix(0.997859 0.0654031 -0.0165799 0.999863 45.0454 35.2973)" stroke="white" stroke-width="0.378378"/>
<line y1="-0.189189" x2="59.5456" y2="-0.189189" transform="matrix(0.997859 0.0654031 -0.0165799 0.999863 45.0454 51.8476)" stroke="white" stroke-width="0.378378"/>
<line y1="-0.189189" x2="59.5456" y2="-0.189189" transform="matrix(0.997859 0.0654031 -0.0165799 0.999863 45.0454 68.3979)" stroke="white" stroke-width="0.378378"/>
<line y1="-0.189189" x2="59.5456" y2="-0.189189" transform="matrix(0.997859 0.0654031 -0.0165799 0.999863 45.0454 84.9485)" stroke="white" stroke-width="0.378378"/>
<line y1="-0.189189" x2="95.1909" y2="-0.189189" transform="matrix(0.00354803 0.999994 -0.975806 -0.21864 92.9541 20.0624)" stroke="white" stroke-width="0.378378"/>
<line y1="-0.189189" x2="95.1909" y2="-0.189189" transform="matrix(0.00354803 0.999994 -0.975806 -0.21864 76.5864 22.5185)" stroke="white" stroke-width="0.378378"/>
<line y1="-0.189189" x2="95.1909" y2="-0.189189" transform="matrix(0.00354803 0.999994 -0.975806 -0.21864 60.2197 24.9745)" stroke="white" stroke-width="0.378378"/>
</g>
</g>
<path d="M85.6539 57.0422C86.2189 57.0719 86.7541 57.351 87.1246 57.8702C87.8611 58.9086 87.6599 60.5189 86.674 61.4681L71.4612 76.0726C70.9671 76.5483 70.3701 76.7633 69.8029 76.7336C69.1144 76.697 68.5792 76.4225 68.2086 75.901L61.9574 67.1132C61.2186 66.0748 61.4199 64.4645 62.408 63.5176C62.9021 63.0441 63.4991 62.8245 64.064 62.8542C64.629 62.884 65.1642 63.163 65.5348 63.6822L70.5028 70.6677L84.0002 57.7078C84.4942 57.2343 85.0912 57.0148 85.6562 57.0445L85.6539 57.0422Z" fill="black" stroke="black" stroke-width="0.330756" stroke-miterlimit="10"/>
<path d="M140.052 46.8704C142.687 52.588 118.005 69.6115 84.8992 84.8939C51.8051 100.176 22.8404 107.941 20.1934 102.223" stroke="black" stroke-width="0.378378" stroke-linecap="round" stroke-linejoin="round"/>
<path d="M127.982 63.3413C129.521 63.3413 130.77 62.093 130.77 60.5531C130.77 59.0132 129.521 57.7648 127.982 57.7648C126.442 57.7648 125.193 59.0132 125.193 60.5531C125.193 62.093 126.442 63.3413 127.982 63.3413Z" fill="#25D27F"/>
<defs>
<linearGradient id="paint0_linear_1_2922" x1="75.3385" y1="37.8379" x2="75.3385" y2="94.385" gradientUnits="userSpaceOnUse">
<stop stop-color="white"/>
<stop offset="1" stop-color="white" stop-opacity="0"/>
</linearGradient>
</defs>
</svg>
