<svg width="40" height="40" viewBox="0 0 40 40" fill="none" xmlns="http://www.w3.org/2000/svg">
<rect width="40" height="40" rx="20" fill="#000D1D" fill-opacity="0.02"/>
<path d="M20 11V12M13.64 13.64L14.34 14.34M11 20H12M13.64 26.36L14.34 25.66M20 29V28M26.36 26.36L25.66 25.66M29 20H28M26.36 13.64L25.66 14.34M24 20C24 20.7911 23.7654 21.5645 23.3259 22.2223C22.8864 22.8801 22.2616 23.3928 21.5307 23.6955C20.7998 23.9983 19.9956 24.0775 19.2196 23.9231C18.4437 23.7688 17.731 23.3878 17.1716 22.8284C16.6122 22.269 16.2312 21.5563 16.0769 20.7804C15.9225 20.0044 16.0017 19.2002 16.3045 18.4693C16.6072 17.7384 17.1199 17.1136 17.7777 16.6741C18.4355 16.2346 19.2089 16 20 16C21.0609 16 22.0783 16.4214 22.8284 17.1716C23.5786 17.9217 24 18.9391 24 20Z" stroke="#8C8C8C" stroke-width="2" stroke-linecap="round" stroke-linejoin="round"/>
<path d="M23.3259 22.2223C23.7654 21.5645 24 20.7911 24 20C24 18.9391 23.5786 17.9217 22.8284 17.1716C22.0783 16.4214 21.0609 16 20 16C19.2089 16 18.4355 16.2346 17.7777 16.6741C17.1199 17.1136 16.6072 17.7384 16.3045 18.4693C16.0017 19.2002 15.9225 20.0044 16.0769 20.7804C16.2312 21.5563 16.6122 22.269 17.1716 22.8284C17.731 23.3878 18.4437 23.7688 19.2196 23.9231C19.9956 24.0775 20.7998 23.9983 21.5307 23.6955C22.2616 23.3928 22.8864 22.8801 23.3259 22.2223Z" stroke="#01BC8D" stroke-width="2" stroke-linecap="round" stroke-linejoin="round"/>
</svg>
